<svg width="32" height="32" viewBox="0 0 32 32" fill="none" xmlns="http://www.w3.org/2000/svg">
<path d="M15.8667 6.99986C16.1405 6.99986 16.4031 7.10521 16.5967 7.29275C16.7902 7.48029 16.899 7.73464 16.899 7.99986L16.899 21.5899L18.2306 20.2899C18.425 20.1016 18.6886 19.9958 18.9635 19.9958C19.2384 19.9958 19.502 20.1016 19.6964 20.2899C19.8908 20.4782 20 20.7336 20 20.9999C20 21.2662 19.8908 21.5216 19.6964 21.7099L16.5996 24.7099C16.4545 24.8486 16.2702 24.9426 16.0699 24.98C15.8697 25.0174 15.6625 24.9964 15.4745 24.9199C15.286 24.8448 15.1246 24.7174 15.0107 24.5537C14.8968 24.39 14.8355 24.1973 14.8345 23.9999L14.8345 7.99986C14.8345 7.73464 14.9432 7.48029 15.1368 7.29275C15.3304 7.10521 15.593 6.99986 15.8667 6.99986Z" fill="#909090"/>
<path d="M12.77 19.9998C12.9058 19.9991 13.0405 20.0243 13.1663 20.074C13.292 20.1238 13.4064 20.1971 13.5029 20.2898L16.5997 23.2898C16.794 23.4781 16.9032 23.7335 16.9032 23.9998C16.9032 24.1317 16.8764 24.2622 16.8243 24.3841C16.7723 24.5059 16.6959 24.6166 16.5997 24.7098C16.5034 24.8031 16.3892 24.877 16.2634 24.9275C16.1376 24.9779 16.0029 25.0039 15.8668 25.0039C15.5919 25.0039 15.3282 24.8981 15.1339 24.7098L12.0371 21.7098C11.9403 21.6169 11.8635 21.5062 11.8111 21.3844C11.7587 21.2625 11.7317 21.1318 11.7317 20.9998C11.7317 20.8678 11.7587 20.7371 11.8111 20.6152C11.8635 20.4934 11.9403 20.3828 12.0371 20.2898C12.1335 20.1971 12.2479 20.1238 12.3737 20.074C12.4995 20.0243 12.6341 19.9991 12.77 19.9998Z" fill="#909090"/>
</svg>
