<svg width="64" height="64" viewBox="0 0 64 64" fill="none" xmlns="http://www.w3.org/2000/svg">
<path d="M54 11.9998H50C49.4696 11.9998 48.9609 12.2106 48.5858 12.5856C48.2107 12.9607 48 13.4694 48 13.9998V15.9998H28.7568L26.3184 8.33185C25.7954 6.76623 24.6828 5.46609 23.2169 4.70741C21.7509 3.94874 20.047 3.79127 18.4668 4.26845C17.6666 4.50121 16.9213 4.8923 16.2751 5.41853C15.6289 5.94475 15.095 6.59539 14.705 7.33185C14.3264 8.04086 14.0942 8.81871 14.022 9.61922C13.9499 10.4197 14.0393 11.2266 14.285 11.9918L15.56 15.9998H6C5.46957 15.9998 4.96086 16.2106 4.58579 16.5856C4.21071 16.9607 4 17.4694 4 17.9998V57.9998C4 58.5303 4.21071 59.039 4.58579 59.4141C4.96086 59.7891 5.46957 59.9998 6 59.9998H54C55.5908 59.9981 57.1159 59.3654 58.2407 58.2406C59.3656 57.1157 59.9983 55.5906 60 53.9998V17.9998C59.9983 16.4091 59.3656 14.884 58.2407 13.7591C57.1159 12.6343 55.5908 12.0016 54 11.9998ZM29.834 32.5906L28.334 35.3328L25.434 33.8464L19.98 16.6974L24.3654 15.3918L29.834 32.5906ZM18.24 9.20305C18.3828 8.93759 18.5773 8.70346 18.8121 8.51452C19.047 8.32558 19.3173 8.18566 19.6072 8.10305C20.183 7.91884 20.808 7.96647 21.3492 8.23583C21.8905 8.50518 22.3053 8.97501 22.5056 9.54545L23.1528 11.5798L18.7674 12.8854L18.0976 10.7798C18.0143 10.5209 17.984 10.2479 18.0084 9.97696C18.0329 9.70606 18.1116 9.44286 18.24 9.20305ZM54 55.9998H8V19.9998H16.8316L21.873 35.8534C21.9532 36.105 22.0823 36.3382 22.2529 36.5396C22.4235 36.741 22.6323 36.9068 22.8672 37.0272L28.2422 39.7798C28.5238 39.9245 28.8358 40 29.1524 39.9998H35C35.7956 39.9998 36.5587 40.3159 37.1213 40.8785C37.6839 41.4411 38 42.2042 38 42.9998C38 43.7955 37.6839 44.5586 37.1213 45.1212C36.5587 45.6838 35.7956 45.9998 35 45.9998H14V49.9998H35C36.8565 49.9998 38.637 49.2624 39.9497 47.9496C41.2625 46.6368 42 44.8564 42 42.9998C42 41.1433 41.2625 39.3629 39.9497 38.0501C38.637 36.7373 36.8565 35.9998 35 35.9998H32.528L33.754 33.7598C33.8844 33.5228 33.9651 33.2616 33.9913 32.9923C34.0175 32.723 33.9886 32.4512 33.9064 32.1934L30.0288 19.9998H48V49.9998C48 50.5303 48.2107 51.039 48.5858 51.4141C48.9609 51.7891 49.4696 51.9998 50 51.9998H54C54.5304 51.9998 55.0391 52.2106 55.4142 52.5856C55.7893 52.9607 56 53.4694 56 53.9998C56 54.5303 55.7893 55.039 55.4142 55.4141C55.0391 55.7891 54.5304 55.9998 54 55.9998ZM56 48.3426C55.3578 48.1152 54.6813 47.9992 54 47.9998H52V15.9998H54C54.5303 16.0004 55.0387 16.2113 55.4136 16.5862C55.7886 16.9612 55.9995 17.4696 56 17.9998V48.3426Z" fill="#FF872E"/>
</svg>
