<svg width="64" height="64" viewBox="0 0 64 64" fill="none" xmlns="http://www.w3.org/2000/svg">
<path d="M56 25.9998C54.7621 26.0032 53.5556 26.3895 52.5459 27.1056C51.5362 27.8218 50.7726 28.8327 50.36 29.9998H47.86C47.4136 26.4797 45.8098 23.2079 43.3008 20.6989C40.7919 18.19 37.5201 16.5861 34 16.1398V13.6398C35.3344 13.168 36.4591 12.2396 37.1753 11.0188C37.8914 9.79798 38.1529 8.36329 37.9136 6.9683C37.6743 5.57331 36.9495 4.30784 35.8673 3.39555C34.7852 2.48327 33.4154 1.98291 32 1.98291C30.5846 1.98291 29.2148 2.48327 28.1327 3.39555C27.0506 4.30784 26.3258 5.57331 26.0864 6.9683C25.8471 8.36329 26.1086 9.79798 26.8247 11.0188C27.5409 12.2396 28.6656 13.168 30 13.6398V16.1398C26.48 16.5861 23.2082 18.19 20.6992 20.6989C18.1902 23.2079 16.5864 26.4797 16.14 29.9998H13.64C13.1682 28.6653 12.2399 27.5407 11.019 26.8245C9.79823 26.1083 8.36353 25.8468 6.96854 26.0862C5.57355 26.3255 4.30808 27.0503 3.3958 28.1324C2.48351 29.2146 1.98315 30.5844 1.98315 31.9998C1.98315 33.4151 2.48351 34.7849 3.3958 35.8671C4.30808 36.9492 5.57355 37.674 6.96854 37.9134C8.36353 38.1527 9.79823 37.8912 11.019 37.175C12.2399 36.4589 13.1682 35.3342 13.64 33.9998H16.14C16.4403 36.362 17.264 38.6273 18.5512 40.6307C19.8383 42.634 21.5563 44.3248 23.58 45.5798L18.56 50.6198C17.4421 50.11 16.1973 49.9461 14.9856 50.1493C13.7738 50.3524 12.6505 50.9133 11.76 51.7598C10.9781 52.5348 10.4245 53.51 10.1598 54.5786C9.89505 55.6472 9.92946 56.7681 10.2592 57.8184C10.589 58.8688 11.2014 59.8082 12.0294 60.5338C12.8574 61.2594 13.869 61.7431 14.9536 61.9321C16.0382 62.1212 17.1539 62.0081 18.1785 61.6054C19.2031 61.2027 20.0972 60.5258 20.7628 59.6489C21.4285 58.772 21.84 57.7289 21.9524 56.6337C22.0648 55.5386 21.8737 54.4336 21.4 53.4398L27.4 47.4398C28.8984 47.8467 30.4477 48.0353 32 47.9998C33.5583 47.9983 35.108 47.7692 36.6 47.3198L42.72 53.4398C42.2463 54.4336 42.0552 55.5386 42.1676 56.6337C42.28 57.7289 42.6916 58.772 43.3572 59.6489C44.0228 60.5258 44.9169 61.2027 45.9415 61.6054C46.9661 62.0081 48.0818 62.1212 49.1664 61.9321C50.251 61.7431 51.2626 61.2594 52.0906 60.5338C52.9186 59.8082 53.531 58.8688 53.8608 57.8184C54.1906 56.7681 54.225 55.6472 53.9603 54.5786C53.6956 53.51 53.1419 52.5348 52.36 51.7598C51.482 50.8861 50.3551 50.3056 49.134 50.0979C47.9129 49.8902 46.6575 50.0655 45.54 50.5998L40.48 45.5398C42.4877 44.2825 44.1912 42.5951 45.4674 40.5995C46.7437 38.6038 47.5609 36.3497 47.86 33.9998H50.36C50.7269 35.0375 51.3722 35.9543 52.2253 36.6499C53.0784 37.3455 54.1064 37.793 55.1967 37.9434C56.2871 38.0939 57.3979 37.9415 58.4074 37.5029C59.417 37.0644 60.2865 36.3566 60.9207 35.457C61.5549 34.5573 61.9295 33.5006 62.0033 32.4024C62.0772 31.3041 61.8475 30.2068 61.3395 29.2303C60.8314 28.2539 60.0646 27.436 59.1228 26.8662C58.1811 26.2964 57.1007 25.9967 56 25.9998ZM17.42 57.4198C17.2341 57.6072 17.0129 57.756 16.7692 57.8575C16.5254 57.9591 16.264 58.0114 16 58.0114C15.736 58.0114 15.4746 57.9591 15.2309 57.8575C14.9871 57.756 14.7659 57.6072 14.58 57.4198C14.3926 57.2338 14.2438 57.0126 14.1422 56.7689C14.0407 56.5252 13.9884 56.2638 13.9884 55.9998C13.9884 55.7357 14.0407 55.4743 14.1422 55.2306C14.2438 54.9869 14.3926 54.7657 14.58 54.5798C14.7659 54.3923 14.9871 54.2435 15.2309 54.142C15.4746 54.0404 15.736 53.9882 16 53.9882C16.264 53.9882 16.5254 54.0404 16.7692 54.142C17.0129 54.2435 17.2341 54.3923 17.42 54.5798C17.6075 54.7657 17.7563 54.9869 17.8578 55.2306C17.9593 55.4743 18.0116 55.7357 18.0116 55.9998C18.0116 56.2638 17.9593 56.5252 17.8578 56.7689C17.7563 57.0126 17.6075 57.2338 17.42 57.4198ZM48.12 53.9998C48.5826 54.0024 49.0299 54.1654 49.3858 54.4608C49.7417 54.7562 49.9843 55.1659 50.0721 55.6201C50.1599 56.0742 50.0876 56.5448 49.8674 56.9516C49.6473 57.3584 49.2929 57.6763 48.8647 57.8512C48.4365 58.0261 47.9609 58.0472 47.5189 57.9109C47.0768 57.7745 46.6958 57.4891 46.4405 57.1034C46.1853 56.7176 46.0716 56.2553 46.1189 55.7952C46.1662 55.335 46.3716 54.9055 46.7 54.5798C46.8869 54.3944 47.1085 54.2477 47.3522 54.1482C47.5959 54.0487 47.8568 53.9982 48.12 53.9998ZM32 5.99976C32.3956 5.99976 32.7823 6.11706 33.1111 6.33683C33.44 6.55659 33.6964 6.86895 33.8478 7.2344C33.9991 7.59985 34.0387 8.00198 33.9616 8.38995C33.8844 8.77791 33.6939 9.13427 33.4142 9.41398C33.1345 9.69368 32.7782 9.88416 32.3902 9.96134C32.0022 10.0385 31.6001 9.9989 31.2346 9.84752C30.8692 9.69615 30.5568 9.4398 30.3371 9.1109C30.1173 8.78201 30 8.39533 30 7.99976C30 7.46933 30.2107 6.96062 30.5858 6.58555C30.9609 6.21048 31.4696 5.99976 32 5.99976ZM32 19.9998C35.1826 19.9998 38.2349 21.264 40.4853 23.5145C42.7357 25.7649 44 28.8172 44 31.9998C44.0002 33.0197 43.8657 34.0351 43.6 35.0198C42.1628 33.508 40.4439 32.2919 38.54 31.4398C38.9445 30.3798 39.0853 29.2375 38.9503 28.111C38.8152 26.9846 38.4085 25.9079 37.765 24.9736C37.1215 24.0392 36.2605 23.2753 35.2563 22.7476C34.252 22.2198 33.1345 21.9441 32 21.9441C30.8655 21.9441 29.748 22.2198 28.7438 22.7476C27.7395 23.2753 26.8785 24.0392 26.235 24.9736C25.5915 25.9079 25.1848 26.9846 25.0498 28.111C24.9147 29.2375 25.0555 30.3798 25.46 31.4398C23.5561 32.2919 21.8372 33.508 20.4 35.0198C20.1343 34.0351 19.9998 33.0197 20 31.9998C20 28.8172 21.2643 25.7649 23.5147 23.5145C25.7652 21.264 28.8174 19.9998 32 19.9998ZM35 28.9998C35 29.5931 34.8241 30.1731 34.4944 30.6665C34.1648 31.1598 33.6962 31.5443 33.1481 31.7714C32.5999 31.9985 31.9967 32.0579 31.4147 31.9421C30.8328 31.8264 30.2982 31.5406 29.8787 31.1211C29.4591 30.7015 29.1734 30.167 29.0577 29.585C28.9419 29.0031 29.0013 28.3999 29.2284 27.8517C29.4554 27.3035 29.84 26.835 30.3333 26.5054C30.8266 26.1757 31.4067 25.9998 32 25.9998C32.7957 25.9998 33.5587 26.3158 34.1213 26.8784C34.6839 27.4411 35 28.2041 35 28.9998ZM8.00001 33.9998C7.60445 33.9998 7.21777 33.8825 6.88887 33.6627C6.55997 33.4429 6.30362 33.1306 6.15225 32.7651C6.00087 32.3997 5.96127 31.9975 6.03844 31.6096C6.11561 31.2216 6.30609 30.8653 6.58579 30.5856C6.8655 30.3058 7.22187 30.1154 7.60983 30.0382C7.99779 29.961 8.39992 30.0006 8.76538 30.152C9.13083 30.3034 9.44318 30.5597 9.66295 30.8886C9.88271 31.2175 10 31.6042 10 31.9998C10 32.5302 9.78929 33.0389 9.41422 33.414C9.03915 33.7891 8.53044 33.9998 8.00001 33.9998ZM28 43.3198C27.7581 43.1633 27.4852 43.061 27.2 43.0198C25.1987 42.1692 23.4692 40.7856 22.2 39.0198C23.6461 37.025 25.6711 35.5237 28 34.7198C29.1716 35.5425 30.5684 35.984 32 35.984C33.4316 35.984 34.8284 35.5425 36 34.7198C38.2897 35.5362 40.2774 37.0287 41.7 38.9998C40.4045 40.7728 38.6474 42.1563 36.62 42.9998C36.4539 43.042 36.2929 43.1024 36.14 43.1798C34.8193 43.6955 33.4176 43.9732 32 43.9998C30.6371 44.0094 29.2831 43.7793 28 43.3198ZM56 33.9998C55.6044 33.9998 55.2178 33.8825 54.8889 33.6627C54.56 33.4429 54.3036 33.1306 54.1522 32.7651C54.0009 32.3997 53.9613 31.9975 54.0384 31.6096C54.1156 31.2216 54.3061 30.8653 54.5858 30.5856C54.8655 30.3058 55.2219 30.1154 55.6098 30.0382C55.9978 29.961 56.3999 30.0006 56.7654 30.152C57.1308 30.3034 57.4432 30.5597 57.6629 30.8886C57.8827 31.2175 58 31.6042 58 31.9998C58 32.5302 57.7893 33.0389 57.4142 33.414C57.0392 33.7891 56.5304 33.9998 56 33.9998Z" fill="#1BCFF6"/>
</svg>
