<svg width="227" height="15" viewBox="0 0 227 15" fill="none" xmlns="http://www.w3.org/2000/svg">
<path d="M7.35057 9.012H3.27657L2.57657 11H0.91057L4.39657 1.256H6.24457L9.73057 11H8.05057L7.35057 9.012ZM6.90257 7.71L5.32057 3.188L3.72457 7.71H6.90257ZM12.8423 0.64V11H11.2463V0.64H12.8423ZM16.5337 4.406C16.767 4.014 17.075 3.71067 17.4577 3.496C17.8497 3.272 18.3117 3.16 18.8437 3.16V4.812H18.4377C17.8124 4.812 17.3364 4.97067 17.0097 5.288C16.6924 5.60533 16.5337 6.156 16.5337 6.94V11H14.9377V3.286H16.5337V4.406ZM27.3807 6.954C27.3807 7.24333 27.3621 7.50467 27.3247 7.738H21.4307C21.4774 8.354 21.7061 8.84867 22.1167 9.222C22.5274 9.59533 23.0314 9.782 23.6287 9.782C24.4874 9.782 25.0941 9.42267 25.4487 8.704H27.1707C26.9374 9.41333 26.5127 9.99667 25.8967 10.454C25.2901 10.902 24.5341 11.126 23.6287 11.126C22.8914 11.126 22.2287 10.9627 21.6407 10.636C21.0621 10.3 20.6047 9.83333 20.2687 9.236C19.9421 8.62933 19.7787 7.92933 19.7787 7.136C19.7787 6.34267 19.9374 5.64733 20.2547 5.05C20.5814 4.44333 21.0341 3.97667 21.6127 3.65C22.2007 3.32333 22.8727 3.16 23.6287 3.16C24.3567 3.16 25.0054 3.31867 25.5747 3.636C26.1441 3.95333 26.5874 4.40133 26.9047 4.98C27.2221 5.54933 27.3807 6.20733 27.3807 6.954ZM25.7147 6.45C25.7054 5.862 25.4954 5.39067 25.0847 5.036C24.6741 4.68133 24.1654 4.504 23.5587 4.504C23.0081 4.504 22.5367 4.68133 22.1447 5.036C21.7527 5.38133 21.5194 5.85267 21.4447 6.45H25.7147ZM28.4194 7.108C28.4194 6.33333 28.578 5.64733 28.8954 5.05C29.222 4.45267 29.6607 3.99067 30.2114 3.664C30.7714 3.328 31.3874 3.16 32.0594 3.16C32.666 3.16 33.1934 3.28133 33.6414 3.524C34.0987 3.75733 34.4627 4.05133 34.7334 4.406V3.286H36.3434V11H34.7334V9.852C34.4627 10.216 34.094 10.5193 33.6274 10.762C33.1607 11.0047 32.6287 11.126 32.0314 11.126C31.3687 11.126 30.762 10.958 30.2114 10.622C29.6607 10.2767 29.222 9.80067 28.8954 9.194C28.578 8.578 28.4194 7.88267 28.4194 7.108ZM34.7334 7.136C34.7334 6.604 34.6214 6.142 34.3974 5.75C34.1827 5.358 33.898 5.05933 33.5434 4.854C33.1887 4.64867 32.806 4.546 32.3954 4.546C31.9847 4.546 31.602 4.64867 31.2474 4.854C30.8927 5.05 30.6034 5.344 30.3794 5.736C30.1647 6.11867 30.0574 6.576 30.0574 7.108C30.0574 7.64 30.1647 8.10667 30.3794 8.508C30.6034 8.90933 30.8927 9.21733 31.2474 9.432C31.6114 9.63733 31.994 9.74 32.3954 9.74C32.806 9.74 33.1887 9.63733 33.5434 9.432C33.898 9.22667 34.1827 8.928 34.3974 8.536C34.6214 8.13467 34.7334 7.668 34.7334 7.136ZM37.9076 7.108C37.9076 6.33333 38.0663 5.64733 38.3836 5.05C38.7103 4.45267 39.149 3.99067 39.6996 3.664C40.2596 3.328 40.8803 3.16 41.5616 3.16C42.0656 3.16 42.5603 3.272 43.0456 3.496C43.5403 3.71067 43.9323 4 44.2216 4.364V0.64H45.8316V11H44.2216V9.838C43.9603 10.2113 43.5963 10.5193 43.1296 10.762C42.6723 11.0047 42.145 11.126 41.5476 11.126C40.8756 11.126 40.2596 10.958 39.6996 10.622C39.149 10.2767 38.7103 9.80067 38.3836 9.194C38.0663 8.578 37.9076 7.88267 37.9076 7.108ZM44.2216 7.136C44.2216 6.604 44.1096 6.142 43.8856 5.75C43.671 5.358 43.3863 5.05933 43.0316 4.854C42.677 4.64867 42.2943 4.546 41.8836 4.546C41.473 4.546 41.0903 4.64867 40.7356 4.854C40.381 5.05 40.0916 5.344 39.8676 5.736C39.653 6.11867 39.5456 6.576 39.5456 7.108C39.5456 7.64 39.653 8.10667 39.8676 8.508C40.0916 8.90933 40.381 9.21733 40.7356 9.432C41.0996 9.63733 41.4823 9.74 41.8836 9.74C42.2943 9.74 42.677 9.63733 43.0316 9.432C43.3863 9.22667 43.671 8.928 43.8856 8.536C44.1096 8.13467 44.2216 7.668 44.2216 7.136ZM54.8719 3.286L50.1399 14.626H48.4879L50.0559 10.874L47.0179 3.286H48.7959L50.9659 9.166L53.2199 3.286H54.8719ZM63.7031 3.16C64.2911 3.16 64.8138 3.286 65.2711 3.538C65.7378 3.79 66.1018 4.16333 66.3631 4.658C66.6338 5.15267 66.7691 5.75 66.7691 6.45V11H65.1871V6.688C65.1871 5.99733 65.0144 5.47 64.6691 5.106C64.3238 4.73267 63.8524 4.546 63.2551 4.546C62.6578 4.546 62.1818 4.73267 61.8271 5.106C61.4818 5.47 61.3091 5.99733 61.3091 6.688V11H59.7131V0.64H61.3091V4.182C61.5798 3.85533 61.9204 3.60333 62.3311 3.426C62.7511 3.24867 63.2084 3.16 63.7031 3.16ZM68.2729 7.108C68.2729 6.33333 68.4315 5.64733 68.7489 5.05C69.0755 4.45267 69.5142 3.99067 70.0649 3.664C70.6249 3.328 71.2409 3.16 71.9129 3.16C72.5195 3.16 73.0469 3.28133 73.4949 3.524C73.9522 3.75733 74.3162 4.05133 74.5869 4.406V3.286H76.1969V11H74.5869V9.852C74.3162 10.216 73.9475 10.5193 73.4809 10.762C73.0142 11.0047 72.4822 11.126 71.8849 11.126C71.2222 11.126 70.6155 10.958 70.0649 10.622C69.5142 10.2767 69.0755 9.80067 68.7489 9.194C68.4315 8.578 68.2729 7.88267 68.2729 7.108ZM74.5869 7.136C74.5869 6.604 74.4749 6.142 74.2509 5.75C74.0362 5.358 73.7515 5.05933 73.3969 4.854C73.0422 4.64867 72.6595 4.546 72.2489 4.546C71.8382 4.546 71.4555 4.64867 71.1009 4.854C70.7462 5.05 70.4569 5.344 70.2329 5.736C70.0182 6.11867 69.9109 6.576 69.9109 7.108C69.9109 7.64 70.0182 8.10667 70.2329 8.508C70.4569 8.90933 70.7462 9.21733 71.1009 9.432C71.4649 9.63733 71.8475 9.74 72.2489 9.74C72.6595 9.74 73.0422 9.63733 73.3969 9.432C73.7515 9.22667 74.0362 8.928 74.2509 8.536C74.4749 8.13467 74.5869 7.668 74.5869 7.136ZM81.2752 9.572L83.4592 3.286H85.1532L82.2132 11H80.3092L77.3832 3.286H79.0912L81.2752 9.572ZM93.4296 6.954C93.4296 7.24333 93.4109 7.50467 93.3736 7.738H87.4796C87.5262 8.354 87.7549 8.84867 88.1656 9.222C88.5762 9.59533 89.0802 9.782 89.6776 9.782C90.5362 9.782 91.1429 9.42267 91.4976 8.704H93.2196C92.9862 9.41333 92.5616 9.99667 91.9456 10.454C91.3389 10.902 90.5829 11.126 89.6776 11.126C88.9402 11.126 88.2776 10.9627 87.6896 10.636C87.1109 10.3 86.6536 9.83333 86.3176 9.236C85.9909 8.62933 85.8276 7.92933 85.8276 7.136C85.8276 6.34267 85.9862 5.64733 86.3036 5.05C86.6302 4.44333 87.0829 3.97667 87.6616 3.65C88.2496 3.32333 88.9216 3.16 89.6776 3.16C90.4056 3.16 91.0542 3.31867 91.6236 3.636C92.1929 3.95333 92.6362 4.40133 92.9536 4.98C93.2709 5.54933 93.4296 6.20733 93.4296 6.954ZM91.7636 6.45C91.7542 5.862 91.5442 5.39067 91.1336 5.036C90.7229 4.68133 90.2142 4.504 89.6076 4.504C89.0569 4.504 88.5856 4.68133 88.1936 5.036C87.8016 5.38133 87.5682 5.85267 87.4936 6.45H91.7636ZM98.1049 7.108C98.1049 6.33333 98.2636 5.64733 98.5809 5.05C98.9076 4.45267 99.3462 3.99067 99.8969 3.664C100.457 3.328 101.073 3.16 101.745 3.16C102.352 3.16 102.879 3.28133 103.327 3.524C103.784 3.75733 104.148 4.05133 104.419 4.406V3.286H106.029V11H104.419V9.852C104.148 10.216 103.78 10.5193 103.313 10.762C102.846 11.0047 102.314 11.126 101.717 11.126C101.054 11.126 100.448 10.958 99.8969 10.622C99.3462 10.2767 98.9076 9.80067 98.5809 9.194C98.2636 8.578 98.1049 7.88267 98.1049 7.108ZM104.419 7.136C104.419 6.604 104.307 6.142 104.083 5.75C103.868 5.358 103.584 5.05933 103.229 4.854C102.874 4.64867 102.492 4.546 102.081 4.546C101.67 4.546 101.288 4.64867 100.933 4.854C100.578 5.05 100.289 5.344 100.065 5.736C99.8502 6.11867 99.7429 6.576 99.7429 7.108C99.7429 7.64 99.8502 8.10667 100.065 8.508C100.289 8.90933 100.578 9.21733 100.933 9.432C101.297 9.63733 101.68 9.74 102.081 9.74C102.492 9.74 102.874 9.63733 103.229 9.432C103.584 9.22667 103.868 8.928 104.083 8.536C104.307 8.13467 104.419 7.668 104.419 7.136ZM112.017 3.16C112.624 3.16 113.165 3.286 113.641 3.538C114.127 3.79 114.505 4.16333 114.775 4.658C115.046 5.15267 115.181 5.75 115.181 6.45V11H113.599V6.688C113.599 5.99733 113.427 5.47 113.081 5.106C112.736 4.73267 112.265 4.546 111.667 4.546C111.07 4.546 110.594 4.73267 110.239 5.106C109.894 5.47 109.721 5.99733 109.721 6.688V11H108.125V3.286H109.721V4.168C109.983 3.85067 110.314 3.60333 110.715 3.426C111.126 3.24867 111.56 3.16 112.017 3.16ZM120.322 7.108C120.322 6.33333 120.48 5.64733 120.798 5.05C121.124 4.45267 121.563 3.99067 122.114 3.664C122.674 3.328 123.29 3.16 123.962 3.16C124.568 3.16 125.096 3.28133 125.544 3.524C126.001 3.75733 126.365 4.05133 126.636 4.406V3.286H128.246V11H126.636V9.852C126.365 10.216 125.996 10.5193 125.53 10.762C125.063 11.0047 124.531 11.126 123.934 11.126C123.271 11.126 122.664 10.958 122.114 10.622C121.563 10.2767 121.124 9.80067 120.798 9.194C120.48 8.578 120.322 7.88267 120.322 7.108ZM126.636 7.136C126.636 6.604 126.524 6.142 126.3 5.75C126.085 5.358 125.8 5.05933 125.446 4.854C125.091 4.64867 124.708 4.546 124.298 4.546C123.887 4.546 123.504 4.64867 123.15 4.854C122.795 5.05 122.506 5.344 122.282 5.736C122.067 6.11867 121.96 6.576 121.96 7.108C121.96 7.64 122.067 8.10667 122.282 8.508C122.506 8.90933 122.795 9.21733 123.15 9.432C123.514 9.63733 123.896 9.74 124.298 9.74C124.708 9.74 125.091 9.63733 125.446 9.432C125.8 9.22667 126.085 8.928 126.3 8.536C126.524 8.13467 126.636 7.668 126.636 7.136ZM129.81 7.136C129.81 6.34267 129.969 5.64733 130.286 5.05C130.613 4.44333 131.061 3.97667 131.63 3.65C132.199 3.32333 132.853 3.16 133.59 3.16C134.523 3.16 135.293 3.384 135.9 3.832C136.516 4.27067 136.931 4.90067 137.146 5.722H135.424C135.284 5.33933 135.06 5.04067 134.752 4.826C134.444 4.61133 134.057 4.504 133.59 4.504C132.937 4.504 132.414 4.73733 132.022 5.204C131.639 5.66133 131.448 6.30533 131.448 7.136C131.448 7.96667 131.639 8.61533 132.022 9.082C132.414 9.54867 132.937 9.782 133.59 9.782C134.514 9.782 135.125 9.376 135.424 8.564H137.146C136.922 9.348 136.502 9.97333 135.886 10.44C135.27 10.8973 134.505 11.126 133.59 11.126C132.853 11.126 132.199 10.9627 131.63 10.636C131.061 10.3 130.613 9.83333 130.286 9.236C129.969 8.62933 129.81 7.92933 129.81 7.136ZM138.205 7.136C138.205 6.34267 138.363 5.64733 138.681 5.05C139.007 4.44333 139.455 3.97667 140.025 3.65C140.594 3.32333 141.247 3.16 141.985 3.16C142.918 3.16 143.688 3.384 144.295 3.832C144.911 4.27067 145.326 4.90067 145.541 5.722H143.819C143.679 5.33933 143.455 5.04067 143.147 4.826C142.839 4.61133 142.451 4.504 141.985 4.504C141.331 4.504 140.809 4.73733 140.417 5.204C140.034 5.66133 139.843 6.30533 139.843 7.136C139.843 7.96667 140.034 8.61533 140.417 9.082C140.809 9.54867 141.331 9.782 141.985 9.782C142.909 9.782 143.52 9.376 143.819 8.564H145.541C145.317 9.348 144.897 9.97333 144.281 10.44C143.665 10.8973 142.899 11.126 141.985 11.126C141.247 11.126 140.594 10.9627 140.025 10.636C139.455 10.3 139.007 9.83333 138.681 9.236C138.363 8.62933 138.205 7.92933 138.205 7.136ZM150.477 11.126C149.749 11.126 149.091 10.9627 148.503 10.636C147.915 10.3 147.453 9.83333 147.117 9.236C146.781 8.62933 146.613 7.92933 146.613 7.136C146.613 6.352 146.786 5.65667 147.131 5.05C147.476 4.44333 147.948 3.97667 148.545 3.65C149.142 3.32333 149.81 3.16 150.547 3.16C151.284 3.16 151.952 3.32333 152.549 3.65C153.146 3.97667 153.618 4.44333 153.963 5.05C154.308 5.65667 154.481 6.352 154.481 7.136C154.481 7.92 154.304 8.61533 153.949 9.222C153.594 9.82867 153.109 10.3 152.493 10.636C151.886 10.9627 151.214 11.126 150.477 11.126ZM150.477 9.74C150.888 9.74 151.27 9.642 151.625 9.446C151.989 9.25 152.283 8.956 152.507 8.564C152.731 8.172 152.843 7.696 152.843 7.136C152.843 6.576 152.736 6.10467 152.521 5.722C152.306 5.33 152.022 5.036 151.667 4.84C151.312 4.644 150.93 4.546 150.519 4.546C150.108 4.546 149.726 4.644 149.371 4.84C149.026 5.036 148.75 5.33 148.545 5.722C148.34 6.10467 148.237 6.576 148.237 7.136C148.237 7.96667 148.447 8.61067 148.867 9.068C149.296 9.516 149.833 9.74 150.477 9.74ZM163.045 3.286V11H161.449V10.09C161.197 10.4073 160.865 10.6593 160.455 10.846C160.053 11.0233 159.624 11.112 159.167 11.112C158.56 11.112 158.014 10.986 157.529 10.734C157.053 10.482 156.675 10.1087 156.395 9.614C156.124 9.11933 155.989 8.522 155.989 7.822V3.286H157.571V7.584C157.571 8.27467 157.743 8.80667 158.089 9.18C158.434 9.544 158.905 9.726 159.503 9.726C160.1 9.726 160.571 9.544 160.917 9.18C161.271 8.80667 161.449 8.27467 161.449 7.584V3.286H163.045ZM169.043 3.16C169.649 3.16 170.191 3.286 170.667 3.538C171.152 3.79 171.53 4.16333 171.801 4.658C172.071 5.15267 172.207 5.75 172.207 6.45V11H170.625V6.688C170.625 5.99733 170.452 5.47 170.107 5.106C169.761 4.73267 169.29 4.546 168.693 4.546C168.095 4.546 167.619 4.73267 167.265 5.106C166.919 5.47 166.747 5.99733 166.747 6.688V11H165.151V3.286H166.747V4.168C167.008 3.85067 167.339 3.60333 167.741 3.426C168.151 3.24867 168.585 3.16 169.043 3.16ZM176.104 4.588V8.858C176.104 9.14733 176.17 9.35733 176.3 9.488C176.44 9.60933 176.674 9.67 177 9.67H177.98V11H176.72C176.002 11 175.451 10.832 175.068 10.496C174.686 10.16 174.494 9.614 174.494 8.858V4.588H173.584V3.286H174.494V1.368H176.104V3.286H177.98V4.588H176.104ZM182.069 1.13C183.021 1.13 183.782 1.39133 184.351 1.914C184.93 2.43667 185.219 3.15067 185.219 4.056C185.219 4.99867 184.921 5.708 184.323 6.184C183.726 6.66 182.933 6.898 181.943 6.898L181.887 8.004H180.501L180.431 5.806H180.893C181.799 5.806 182.489 5.68467 182.965 5.442C183.451 5.19933 183.693 4.73733 183.693 4.056C183.693 3.56133 183.549 3.174 183.259 2.894C182.979 2.614 182.587 2.474 182.083 2.474C181.579 2.474 181.183 2.60933 180.893 2.88C180.604 3.15067 180.459 3.52867 180.459 4.014H178.961C178.961 3.454 179.087 2.95467 179.339 2.516C179.591 2.07733 179.951 1.73667 180.417 1.494C180.893 1.25133 181.444 1.13 182.069 1.13ZM181.173 11.098C180.884 11.098 180.641 11 180.445 10.804C180.249 10.608 180.151 10.3653 180.151 10.076C180.151 9.78667 180.249 9.544 180.445 9.348C180.641 9.152 180.884 9.054 181.173 9.054C181.453 9.054 181.691 9.152 181.887 9.348C182.083 9.544 182.181 9.78667 182.181 10.076C182.181 10.3653 182.083 10.608 181.887 10.804C181.691 11 181.453 11.098 181.173 11.098Z" fill="#313131"/>
<path d="M192.497 9.446H195.717V11H190.537V1.228H192.497V9.446ZM200.407 11.126C199.66 11.126 198.988 10.9627 198.391 10.636C197.794 10.3 197.322 9.82867 196.977 9.222C196.641 8.61533 196.473 7.91533 196.473 7.122C196.473 6.32867 196.646 5.62867 196.991 5.022C197.346 4.41533 197.826 3.94867 198.433 3.622C199.04 3.286 199.716 3.118 200.463 3.118C201.21 3.118 201.886 3.286 202.493 3.622C203.1 3.94867 203.576 4.41533 203.921 5.022C204.276 5.62867 204.453 6.32867 204.453 7.122C204.453 7.91533 204.271 8.61533 203.907 9.222C203.552 9.82867 203.067 10.3 202.451 10.636C201.844 10.9627 201.163 11.126 200.407 11.126ZM200.407 9.418C200.762 9.418 201.093 9.334 201.401 9.166C201.718 8.98867 201.97 8.72733 202.157 8.382C202.344 8.03667 202.437 7.61667 202.437 7.122C202.437 6.38467 202.241 5.82 201.849 5.428C201.466 5.02667 200.995 4.826 200.435 4.826C199.875 4.826 199.404 5.02667 199.021 5.428C198.648 5.82 198.461 6.38467 198.461 7.122C198.461 7.85933 198.643 8.42867 199.007 8.83C199.38 9.222 199.847 9.418 200.407 9.418ZM208.929 3.118C209.507 3.118 210.016 3.23467 210.455 3.468C210.893 3.692 211.239 3.986 211.491 4.35V3.244H213.465V11.056C213.465 11.7747 213.32 12.414 213.031 12.974C212.741 13.5433 212.307 13.9913 211.729 14.318C211.15 14.654 210.45 14.822 209.629 14.822C208.527 14.822 207.622 14.5653 206.913 14.052C206.213 13.5387 205.816 12.8387 205.723 11.952H207.669C207.771 12.3067 207.991 12.5867 208.327 12.792C208.672 13.0067 209.087 13.114 209.573 13.114C210.142 13.114 210.604 12.9413 210.959 12.596C211.313 12.26 211.491 11.7467 211.491 11.056V9.852C211.239 10.216 210.889 10.5193 210.441 10.762C210.002 11.0047 209.498 11.126 208.929 11.126C208.275 11.126 207.678 10.958 207.137 10.622C206.595 10.286 206.166 9.81467 205.849 9.208C205.541 8.592 205.387 7.88733 205.387 7.094C205.387 6.31 205.541 5.61467 205.849 5.008C206.166 4.40133 206.591 3.93467 207.123 3.608C207.664 3.28133 208.266 3.118 208.929 3.118ZM211.491 7.122C211.491 6.646 211.397 6.24 211.211 5.904C211.024 5.55867 210.772 5.29733 210.455 5.12C210.137 4.93333 209.797 4.84 209.433 4.84C209.069 4.84 208.733 4.92867 208.425 5.106C208.117 5.28333 207.865 5.54467 207.669 5.89C207.482 6.226 207.389 6.62733 207.389 7.094C207.389 7.56067 207.482 7.97133 207.669 8.326C207.865 8.67133 208.117 8.93733 208.425 9.124C208.742 9.31067 209.078 9.404 209.433 9.404C209.797 9.404 210.137 9.31533 210.455 9.138C210.772 8.95133 211.024 8.69 211.211 8.354C211.397 8.00867 211.491 7.598 211.491 7.122ZM216.373 2.32C216.028 2.32 215.738 2.21267 215.505 1.998C215.281 1.774 215.169 1.49867 215.169 1.172C215.169 0.845333 215.281 0.574666 215.505 0.359999C215.738 0.135999 216.028 0.0239995 216.373 0.0239995C216.718 0.0239995 217.003 0.135999 217.227 0.359999C217.46 0.574666 217.577 0.845333 217.577 1.172C217.577 1.49867 217.46 1.774 217.227 1.998C217.003 2.21267 216.718 2.32 216.373 2.32ZM217.339 3.244V11H215.379V3.244H217.339ZM223.574 3.132C224.498 3.132 225.244 3.426 225.814 4.014C226.383 4.59267 226.668 5.40467 226.668 6.45V11H224.708V6.716C224.708 6.1 224.554 5.62867 224.246 5.302C223.938 4.966 223.518 4.798 222.986 4.798C222.444 4.798 222.015 4.966 221.698 5.302C221.39 5.62867 221.236 6.1 221.236 6.716V11H219.276V3.244H221.236V4.21C221.497 3.874 221.828 3.61267 222.23 3.426C222.64 3.23 223.088 3.132 223.574 3.132Z" fill="#FF8682"/>
</svg>
