<svg width="40" height="40" viewBox="0 0 40 40" fill="none" xmlns="http://www.w3.org/2000/svg">
<path d="M8.75001 19.3548C8.75001 19.0126 8.8817 18.6844 9.11612 18.4424C9.35055 18.2004 9.66849 18.0645 10 18.0645L26.9875 18.0645L25.3625 16.4C25.1271 16.157 24.9949 15.8274 24.9949 15.4838C24.9949 15.1402 25.1271 14.8107 25.3625 14.5677C25.5979 14.3247 25.9171 14.1882 26.25 14.1882C26.5829 14.1882 26.9021 14.3247 27.1375 14.5677L30.8875 18.4387C31.061 18.6201 31.1785 18.8505 31.2252 19.1008C31.2719 19.3512 31.2457 19.6101 31.15 19.8451C31.0562 20.0808 30.897 20.2825 30.6923 20.4248C30.4877 20.5672 30.2468 20.6439 30 20.6451L10 20.6451C9.66849 20.6451 9.35055 20.5092 9.11612 20.2672C8.8817 20.0252 8.75001 19.697 8.75001 19.3548Z" fill="white"/>
<path d="M25 23.2259C24.9991 23.0561 25.0306 22.8877 25.0928 22.7305C25.155 22.5733 25.2467 22.4303 25.3625 22.3098L29.1125 18.4388C29.3479 18.1958 29.6671 18.0593 30 18.0593C30.1648 18.0593 30.328 18.0928 30.4803 18.1579C30.6326 18.2231 30.771 18.3185 30.8875 18.4388C31.0041 18.5591 31.0965 18.7019 31.1596 18.8591C31.2227 19.0163 31.2551 19.1848 31.2551 19.3549C31.2551 19.6985 31.1229 20.0281 30.8875 20.2711L27.1375 24.142C27.0213 24.263 26.8831 24.359 26.7307 24.4245C26.5784 24.49 26.415 24.5237 26.25 24.5237C26.085 24.5237 25.9216 24.49 25.7693 24.4245C25.617 24.359 25.4787 24.263 25.3625 24.142C25.2467 24.0215 25.155 23.8785 25.0928 23.7213C25.0306 23.5641 24.9991 23.3957 25 23.2259Z" fill="white"/>
</svg>
