<svg width="153" height="30" viewBox="0 0 153 30" fill="none" xmlns="http://www.w3.org/2000/svg">
<path d="M5.524 7.94V14.24H13.984V18.236H5.524V24.896H15.064V29H0.484V3.836H15.064V7.94H5.524ZM44.4122 8.768C46.8602 8.768 48.8282 9.524 50.3162 11.036C51.8282 12.524 52.5842 14.612 52.5842 17.3V29H47.5442V17.984C47.5442 16.424 47.1482 15.236 46.3562 14.42C45.5642 13.58 44.4842 13.16 43.1162 13.16C41.7482 13.16 40.6562 13.58 39.8402 14.42C39.0482 15.236 38.6522 16.424 38.6522 17.984V29H33.6122V17.984C33.6122 16.424 33.2162 15.236 32.4242 14.42C31.6322 13.58 30.5522 13.16 29.1842 13.16C27.7922 13.16 26.6882 13.58 25.8722 14.42C25.0802 15.236 24.6842 16.424 24.6842 17.984V29H19.6442V9.056H24.6842V11.468C25.3322 10.628 26.1602 9.968 27.1682 9.488C28.2002 9.008 29.3282 8.768 30.5522 8.768C32.1122 8.768 33.5042 9.104 34.7282 9.776C35.9522 10.424 36.9002 11.36 37.5722 12.584C38.2202 11.432 39.1562 10.508 40.3802 9.812C41.6282 9.116 42.9722 8.768 44.4122 8.768ZM62.4068 11.972C63.0548 11.012 63.9428 10.232 65.0708 9.632C66.2228 9.032 67.5308 8.732 68.9948 8.732C70.6988 8.732 72.2348 9.152 73.6028 9.992C74.9948 10.832 76.0868 12.032 76.8788 13.592C77.6948 15.128 78.1028 16.916 78.1028 18.956C78.1028 20.996 77.6948 22.808 76.8788 24.392C76.0868 25.952 74.9948 27.164 73.6028 28.028C72.2348 28.892 70.6988 29.324 68.9948 29.324C67.5068 29.324 66.1988 29.036 65.0708 28.46C63.9668 27.86 63.0788 27.092 62.4068 26.156V29H57.3668V2.36H62.4068V11.972ZM72.9548 18.956C72.9548 17.756 72.7028 16.724 72.1988 15.86C71.7188 14.972 71.0708 14.3 70.2548 13.844C69.4628 13.388 68.5988 13.16 67.6628 13.16C66.7508 13.16 65.8868 13.4 65.0708 13.88C64.2788 14.336 63.6308 15.008 63.1268 15.896C62.6468 16.784 62.4068 17.828 62.4068 19.028C62.4068 20.228 62.6468 21.272 63.1268 22.16C63.6308 23.048 64.2788 23.732 65.0708 24.212C65.8868 24.668 66.7508 24.896 67.6628 24.896C68.5988 24.896 69.4628 24.656 70.2548 24.176C71.0708 23.696 71.7188 23.012 72.1988 22.124C72.7028 21.236 72.9548 20.18 72.9548 18.956Z" fill="#424241"/>
<path d="M100.305 18.596C100.305 19.316 100.257 19.964 100.161 20.54H85.5813C85.7013 21.98 86.2053 23.108 87.0933 23.924C87.9813 24.74 89.0733 25.148 90.3693 25.148C92.2413 25.148 93.5733 24.344 94.3653 22.736H99.8013C99.2253 24.656 98.1213 26.24 96.4893 27.488C94.8573 28.712 92.8533 29.324 90.4773 29.324C88.5573 29.324 86.8293 28.904 85.2933 28.064C83.7813 27.2 82.5933 25.988 81.7293 24.428C80.8893 22.868 80.4692 21.068 80.4692 19.028C80.4692 16.964 80.8893 15.152 81.7293 13.592C82.5693 12.032 83.7453 10.832 85.2573 9.992C86.7693 9.152 88.5093 8.732 90.4773 8.732C92.3733 8.732 94.0653 9.14 95.5533 9.956C97.0653 10.772 98.2293 11.936 99.0453 13.448C99.8853 14.936 100.305 16.652 100.305 18.596ZM95.0853 17.156C95.0613 15.86 94.5933 14.828 93.6813 14.06C92.7693 13.268 91.6533 12.872 90.3333 12.872C89.0853 12.872 88.0293 13.256 87.1653 14.024C86.3253 14.768 85.8093 15.812 85.6173 17.156H95.0853ZM109.024 2.36V29H103.984V2.36H109.024ZM119.044 2.36V29H114.004V2.36H119.044ZM126.579 6.68C125.691 6.68 124.947 6.404 124.347 5.852C123.771 5.276 123.483 4.568 123.483 3.728C123.483 2.888 123.771 2.192 124.347 1.64C124.947 1.064 125.691 0.775999 126.579 0.775999C127.467 0.775999 128.199 1.064 128.775 1.64C129.375 2.192 129.675 2.888 129.675 3.728C129.675 4.568 129.375 5.276 128.775 5.852C128.199 6.404 127.467 6.68 126.579 6.68ZM129.063 9.056V29H124.023V9.056H129.063ZM152.583 18.596C152.583 19.316 152.535 19.964 152.439 20.54H137.859C137.979 21.98 138.483 23.108 139.371 23.924C140.259 24.74 141.351 25.148 142.647 25.148C144.519 25.148 145.851 24.344 146.643 22.736H152.079C151.503 24.656 150.399 26.24 148.767 27.488C147.135 28.712 145.131 29.324 142.755 29.324C140.835 29.324 139.107 28.904 137.571 28.064C136.059 27.2 134.871 25.988 134.007 24.428C133.167 22.868 132.747 21.068 132.747 19.028C132.747 16.964 133.167 15.152 134.007 13.592C134.847 12.032 136.023 10.832 137.535 9.992C139.047 9.152 140.787 8.732 142.755 8.732C144.651 8.732 146.343 9.14 147.831 9.956C149.343 10.772 150.507 11.936 151.323 13.448C152.163 14.936 152.583 16.652 152.583 18.596ZM147.363 17.156C147.339 15.86 146.871 14.828 145.959 14.06C145.047 13.268 143.931 12.872 142.611 12.872C141.363 12.872 140.307 13.256 139.443 14.024C138.603 14.768 138.087 15.812 137.895 17.156H147.363Z" fill="#968864"/>
</svg>
