<svg width="410" height="199" viewBox="0 0 410 199" fill="none" xmlns="http://www.w3.org/2000/svg">
<g filter="url(#filter0_d_1_42)">
<rect x="50" y="26" width="310" height="99" rx="16" fill="white" shape-rendering="crispEdges"/>
<circle cx="96" cy="75.5" r="30" fill="#F77A40"/>
<path d="M105.92 76.8334C105.627 76.8334 105.32 76.74 105.027 76.6734C104.433 76.5425 103.849 76.3687 103.28 76.1534C102.661 75.9283 101.982 75.94 101.371 76.1862C100.761 76.4323 100.263 76.8955 99.9733 77.4867L99.68 78.0867C98.3813 77.3643 97.188 76.467 96.1333 75.42C95.0864 74.3654 94.1891 73.172 93.4667 71.8734L94.0267 71.5C94.6178 71.2106 95.0811 70.7127 95.3272 70.1023C95.5734 69.4918 95.585 68.8119 95.36 68.1934C95.1483 67.6233 94.9746 67.0398 94.84 66.4467C94.7733 66.1534 94.72 65.8467 94.68 65.54C94.5181 64.6009 94.0262 63.7504 93.2928 63.1417C92.5595 62.533 91.6329 62.2062 90.68 62.22H86.68C86.1054 62.2146 85.5363 62.3331 85.0116 62.5674C84.4869 62.8017 84.0188 63.1463 83.6393 63.5777C83.2597 64.0092 82.9775 64.5174 82.812 65.0676C82.6465 65.6179 82.6015 66.1974 82.68 66.7667C83.3903 72.3525 85.9414 77.5425 89.9302 81.5169C93.919 85.4912 99.1183 88.0234 104.707 88.7134H105.213C106.197 88.7148 107.146 88.3541 107.88 87.7C108.302 87.3228 108.639 86.8603 108.869 86.3431C109.098 85.826 109.216 85.2659 109.213 84.7V80.7C109.197 79.7739 108.86 78.8821 108.259 78.1769C107.659 77.4717 106.832 76.9969 105.92 76.8334ZM106.587 84.8334C106.586 85.0227 106.546 85.2098 106.468 85.3822C106.39 85.5546 106.276 85.7084 106.133 85.8334C105.984 85.962 105.81 86.0581 105.622 86.1155C105.434 86.1729 105.235 86.1903 105.04 86.1667C100.047 85.5264 95.4083 83.242 91.857 79.6737C88.3056 76.1055 86.0432 71.4565 85.4267 66.46C85.4055 66.2647 85.4241 66.0671 85.4813 65.8792C85.5386 65.6913 85.6334 65.5169 85.76 65.3667C85.885 65.2245 86.0388 65.1105 86.2112 65.0323C86.3836 64.9542 86.5707 64.9136 86.76 64.9134H90.76C91.0701 64.9065 91.3728 65.0079 91.6162 65.2001C91.8596 65.3924 92.0283 65.6635 92.0933 65.9667C92.1467 66.3311 92.2133 66.6911 92.2933 67.0467C92.4474 67.7496 92.6524 68.4403 92.9067 69.1134L91.04 69.98C90.8804 70.0533 90.7368 70.1573 90.6176 70.2862C90.4983 70.415 90.4056 70.5662 90.3449 70.731C90.2842 70.8957 90.2566 71.0709 90.2638 71.2463C90.271 71.4218 90.3127 71.5941 90.3867 71.7534C92.3056 75.8637 95.6097 79.1678 99.72 81.0867C100.045 81.2201 100.409 81.2201 100.733 81.0867C100.9 81.0272 101.052 80.9353 101.183 80.8163C101.313 80.6973 101.419 80.5535 101.493 80.3934L102.32 78.5267C103.009 78.7732 103.713 78.978 104.427 79.14C104.782 79.22 105.142 79.2867 105.507 79.34C105.81 79.4051 106.081 79.5738 106.273 79.8172C106.466 80.0605 106.567 80.3633 106.56 80.6734L106.587 84.8334Z" fill="white"/>
<path d="M142.774 55.718C142.774 54.494 143.05 53.396 143.602 52.424C144.154 51.44 144.904 50.672 145.852 50.12C146.812 49.568 147.874 49.292 149.038 49.292C150.406 49.292 151.6 49.622 152.62 50.282C153.64 50.942 154.384 51.878 154.852 53.09H152.89C152.542 52.334 152.038 51.752 151.378 51.344C150.73 50.936 149.95 50.732 149.038 50.732C148.162 50.732 147.376 50.936 146.68 51.344C145.984 51.752 145.438 52.334 145.042 53.09C144.646 53.834 144.448 54.71 144.448 55.718C144.448 56.714 144.646 57.59 145.042 58.346C145.438 59.09 145.984 59.666 146.68 60.074C147.376 60.482 148.162 60.686 149.038 60.686C149.95 60.686 150.73 60.488 151.378 60.092C152.038 59.684 152.542 59.102 152.89 58.346H154.852C154.384 59.546 153.64 60.476 152.62 61.136C151.6 61.784 150.406 62.108 149.038 62.108C147.874 62.108 146.812 61.838 145.852 61.298C144.904 60.746 144.154 59.984 143.602 59.012C143.05 58.04 142.774 56.942 142.774 55.718ZM166.038 52.136V62H164.4V60.542C164.088 61.046 163.65 61.442 163.086 61.73C162.534 62.006 161.922 62.144 161.25 62.144C160.482 62.144 159.792 61.988 159.18 61.676C158.568 61.352 158.082 60.872 157.722 60.236C157.374 59.6 157.2 58.826 157.2 57.914V52.136H158.82V57.698C158.82 58.67 159.066 59.42 159.558 59.948C160.05 60.464 160.722 60.722 161.574 60.722C162.45 60.722 163.14 60.452 163.644 59.912C164.148 59.372 164.4 58.586 164.4 57.554V52.136H166.038ZM172.296 62.162C171.54 62.162 170.862 62.036 170.262 61.784C169.662 61.52 169.188 61.16 168.84 60.704C168.492 60.236 168.3 59.702 168.264 59.102H169.956C170.004 59.594 170.232 59.996 170.64 60.308C171.06 60.62 171.606 60.776 172.278 60.776C172.902 60.776 173.394 60.638 173.754 60.362C174.114 60.086 174.294 59.738 174.294 59.318C174.294 58.886 174.102 58.568 173.718 58.364C173.334 58.148 172.74 57.938 171.936 57.734C171.204 57.542 170.604 57.35 170.136 57.158C169.68 56.954 169.284 56.66 168.948 56.276C168.624 55.88 168.462 55.364 168.462 54.728C168.462 54.224 168.612 53.762 168.912 53.342C169.212 52.922 169.638 52.592 170.19 52.352C170.742 52.1 171.372 51.974 172.08 51.974C173.172 51.974 174.054 52.25 174.726 52.802C175.398 53.354 175.758 54.11 175.806 55.07H174.168C174.132 54.554 173.922 54.14 173.538 53.828C173.166 53.516 172.662 53.36 172.026 53.36C171.438 53.36 170.97 53.486 170.622 53.738C170.274 53.99 170.1 54.32 170.1 54.728C170.1 55.052 170.202 55.322 170.406 55.538C170.622 55.742 170.886 55.91 171.198 56.042C171.522 56.162 171.966 56.3 172.53 56.456C173.238 56.648 173.814 56.84 174.258 57.032C174.702 57.212 175.08 57.488 175.392 57.86C175.716 58.232 175.884 58.718 175.896 59.318C175.896 59.858 175.746 60.344 175.446 60.776C175.146 61.208 174.72 61.55 174.168 61.802C173.628 62.042 173.004 62.162 172.296 62.162ZM180.206 53.486V59.3C180.206 59.78 180.308 60.122 180.512 60.326C180.716 60.518 181.07 60.614 181.574 60.614H182.78V62H181.304C180.392 62 179.708 61.79 179.252 61.37C178.796 60.95 178.568 60.26 178.568 59.3V53.486H177.29V52.136H178.568V49.652H180.206V52.136H182.78V53.486H180.206ZM189.067 62.162C188.143 62.162 187.303 61.952 186.547 61.532C185.803 61.112 185.215 60.518 184.783 59.75C184.363 58.97 184.153 58.07 184.153 57.05C184.153 56.042 184.369 55.154 184.801 54.386C185.245 53.606 185.845 53.012 186.601 52.604C187.357 52.184 188.203 51.974 189.139 51.974C190.075 51.974 190.921 52.184 191.677 52.604C192.433 53.012 193.027 53.6 193.459 54.368C193.903 55.136 194.125 56.03 194.125 57.05C194.125 58.07 193.897 58.97 193.441 59.75C192.997 60.518 192.391 61.112 191.623 61.532C190.855 61.952 190.003 62.162 189.067 62.162ZM189.067 60.722C189.655 60.722 190.207 60.584 190.723 60.308C191.239 60.032 191.653 59.618 191.965 59.066C192.289 58.514 192.451 57.842 192.451 57.05C192.451 56.258 192.295 55.586 191.983 55.034C191.671 54.482 191.263 54.074 190.759 53.81C190.255 53.534 189.709 53.396 189.121 53.396C188.521 53.396 187.969 53.534 187.465 53.81C186.973 54.074 186.577 54.482 186.277 55.034C185.977 55.586 185.827 56.258 185.827 57.05C185.827 57.854 185.971 58.532 186.259 59.084C186.559 59.636 186.955 60.05 187.447 60.326C187.939 60.59 188.479 60.722 189.067 60.722ZM208.141 51.956C208.909 51.956 209.593 52.118 210.193 52.442C210.793 52.754 211.267 53.228 211.615 53.864C211.963 54.5 212.137 55.274 212.137 56.186V62H210.517V56.42C210.517 55.436 210.271 54.686 209.779 54.17C209.299 53.642 208.645 53.378 207.817 53.378C206.965 53.378 206.287 53.654 205.783 54.206C205.279 54.746 205.027 55.532 205.027 56.564V62H203.407V56.42C203.407 55.436 203.161 54.686 202.669 54.17C202.189 53.642 201.535 53.378 200.707 53.378C199.855 53.378 199.177 53.654 198.673 54.206C198.169 54.746 197.917 55.532 197.917 56.564V62H196.279V52.136H197.917V53.558C198.241 53.042 198.673 52.646 199.213 52.37C199.765 52.094 200.371 51.956 201.031 51.956C201.859 51.956 202.591 52.142 203.227 52.514C203.863 52.886 204.337 53.432 204.649 54.152C204.925 53.456 205.381 52.916 206.017 52.532C206.653 52.148 207.361 51.956 208.141 51.956ZM223.824 56.69C223.824 57.002 223.806 57.332 223.77 57.68H215.886C215.946 58.652 216.276 59.414 216.876 59.966C217.488 60.506 218.226 60.776 219.09 60.776C219.798 60.776 220.386 60.614 220.854 60.29C221.334 59.954 221.67 59.51 221.862 58.958H223.626C223.362 59.906 222.834 60.68 222.042 61.28C221.25 61.868 220.266 62.162 219.09 62.162C218.154 62.162 217.314 61.952 216.57 61.532C215.838 61.112 215.262 60.518 214.842 59.75C214.422 58.97 214.212 58.07 214.212 57.05C214.212 56.03 214.416 55.136 214.824 54.368C215.232 53.6 215.802 53.012 216.534 52.604C217.278 52.184 218.13 51.974 219.09 51.974C220.026 51.974 220.854 52.178 221.574 52.586C222.294 52.994 222.846 53.558 223.23 54.278C223.626 54.986 223.824 55.79 223.824 56.69ZM222.132 56.348C222.132 55.724 221.994 55.19 221.718 54.746C221.442 54.29 221.064 53.948 220.584 53.72C220.116 53.48 219.594 53.36 219.018 53.36C218.19 53.36 217.482 53.624 216.894 54.152C216.318 54.68 215.988 55.412 215.904 56.348H222.132ZM227.624 53.738C227.912 53.174 228.32 52.736 228.848 52.424C229.388 52.112 230.042 51.956 230.81 51.956V53.648H230.378C228.542 53.648 227.624 54.644 227.624 56.636V62H225.986V52.136H227.624V53.738ZM241.477 62.126C240.649 62.126 239.905 61.982 239.245 61.694C238.597 61.394 238.087 60.986 237.715 60.47C237.343 59.942 237.151 59.336 237.139 58.652H238.885C238.945 59.24 239.185 59.738 239.605 60.146C240.037 60.542 240.661 60.74 241.477 60.74C242.257 60.74 242.869 60.548 243.313 60.164C243.769 59.768 243.997 59.264 243.997 58.652C243.997 58.172 243.865 57.782 243.601 57.482C243.337 57.182 243.007 56.954 242.611 56.798C242.215 56.642 241.681 56.474 241.009 56.294C240.181 56.078 239.515 55.862 239.011 55.646C238.519 55.43 238.093 55.094 237.733 54.638C237.385 54.17 237.211 53.546 237.211 52.766C237.211 52.082 237.385 51.476 237.733 50.948C238.081 50.42 238.567 50.012 239.191 49.724C239.827 49.436 240.553 49.292 241.369 49.292C242.545 49.292 243.505 49.586 244.249 50.174C245.005 50.762 245.431 51.542 245.527 52.514H243.727C243.667 52.034 243.415 51.614 242.971 51.254C242.527 50.882 241.939 50.696 241.207 50.696C240.523 50.696 239.965 50.876 239.533 51.236C239.101 51.584 238.885 52.076 238.885 52.712C238.885 53.168 239.011 53.54 239.263 53.828C239.527 54.116 239.845 54.338 240.217 54.494C240.601 54.638 241.135 54.806 241.819 54.998C242.647 55.226 243.313 55.454 243.817 55.682C244.321 55.898 244.753 56.24 245.113 56.708C245.473 57.164 245.653 57.788 245.653 58.58C245.653 59.192 245.491 59.768 245.167 60.308C244.843 60.848 244.363 61.286 243.727 61.622C243.091 61.958 242.341 62.126 241.477 62.126ZM257.064 56.69C257.064 57.002 257.046 57.332 257.01 57.68H249.126C249.186 58.652 249.516 59.414 250.116 59.966C250.728 60.506 251.466 60.776 252.33 60.776C253.038 60.776 253.626 60.614 254.094 60.29C254.574 59.954 254.91 59.51 255.102 58.958H256.866C256.602 59.906 256.074 60.68 255.282 61.28C254.49 61.868 253.506 62.162 252.33 62.162C251.394 62.162 250.554 61.952 249.81 61.532C249.078 61.112 248.502 60.518 248.082 59.75C247.662 58.97 247.452 58.07 247.452 57.05C247.452 56.03 247.656 55.136 248.064 54.368C248.472 53.6 249.042 53.012 249.774 52.604C250.518 52.184 251.37 51.974 252.33 51.974C253.266 51.974 254.094 52.178 254.814 52.586C255.534 52.994 256.086 53.558 256.47 54.278C256.866 54.986 257.064 55.79 257.064 56.69ZM255.372 56.348C255.372 55.724 255.234 55.19 254.958 54.746C254.682 54.29 254.304 53.948 253.824 53.72C253.356 53.48 252.834 53.36 252.258 53.36C251.43 53.36 250.722 53.624 250.134 54.152C249.558 54.68 249.228 55.412 249.144 56.348H255.372ZM260.864 53.738C261.152 53.174 261.56 52.736 262.088 52.424C262.628 52.112 263.282 51.956 264.05 51.956V53.648H263.618C261.782 53.648 260.864 54.644 260.864 56.636V62H259.226V52.136H260.864V53.738ZM269.613 60.488L272.673 52.136H274.419L270.549 62H268.641L264.771 52.136H266.535L269.613 60.488ZM276.877 50.534C276.565 50.534 276.301 50.426 276.085 50.21C275.869 49.994 275.761 49.73 275.761 49.418C275.761 49.106 275.869 48.842 276.085 48.626C276.301 48.41 276.565 48.302 276.877 48.302C277.177 48.302 277.429 48.41 277.633 48.626C277.849 48.842 277.957 49.106 277.957 49.418C277.957 49.73 277.849 49.994 277.633 50.21C277.429 50.426 277.177 50.534 276.877 50.534ZM277.669 52.136V62H276.031V52.136H277.669ZM279.848 57.05C279.848 56.03 280.052 55.142 280.46 54.386C280.868 53.618 281.432 53.024 282.152 52.604C282.884 52.184 283.718 51.974 284.654 51.974C285.866 51.974 286.862 52.268 287.642 52.856C288.434 53.444 288.956 54.26 289.208 55.304H287.444C287.276 54.704 286.946 54.23 286.454 53.882C285.974 53.534 285.374 53.36 284.654 53.36C283.718 53.36 282.962 53.684 282.386 54.332C281.81 54.968 281.522 55.874 281.522 57.05C281.522 58.238 281.81 59.156 282.386 59.804C282.962 60.452 283.718 60.776 284.654 60.776C285.374 60.776 285.974 60.608 286.454 60.272C286.934 59.936 287.264 59.456 287.444 58.832H289.208C288.944 59.84 288.416 60.65 287.624 61.262C286.832 61.862 285.842 62.162 284.654 62.162C283.718 62.162 282.884 61.952 282.152 61.532C281.432 61.112 280.868 60.518 280.46 59.75C280.052 58.982 279.848 58.082 279.848 57.05ZM300.394 56.69C300.394 57.002 300.376 57.332 300.34 57.68H292.456C292.516 58.652 292.846 59.414 293.446 59.966C294.058 60.506 294.796 60.776 295.66 60.776C296.368 60.776 296.956 60.614 297.424 60.29C297.904 59.954 298.24 59.51 298.432 58.958H300.196C299.932 59.906 299.404 60.68 298.612 61.28C297.82 61.868 296.836 62.162 295.66 62.162C294.724 62.162 293.884 61.952 293.14 61.532C292.408 61.112 291.832 60.518 291.412 59.75C290.992 58.97 290.782 58.07 290.782 57.05C290.782 56.03 290.986 55.136 291.394 54.368C291.802 53.6 292.372 53.012 293.104 52.604C293.848 52.184 294.7 51.974 295.66 51.974C296.596 51.974 297.424 52.178 298.144 52.586C298.864 52.994 299.416 53.558 299.8 54.278C300.196 54.986 300.394 55.79 300.394 56.69ZM298.702 56.348C298.702 55.724 298.564 55.19 298.288 54.746C298.012 54.29 297.634 53.948 297.154 53.72C296.686 53.48 296.164 53.36 295.588 53.36C294.76 53.36 294.052 53.624 293.464 54.152C292.888 54.68 292.558 55.412 292.474 56.348H298.702Z" fill="#F77A40"/>
<path d="M155.656 92.448H151.48V96.72H147.592V92.448H143.416V88.776H147.592V84.48H151.48V88.776H155.656V92.448ZM157.718 85.296V81.48H164.366V99H160.094V85.296H157.718ZM167.03 95.712C167.574 95.28 167.822 95.08 167.774 95.112C169.342 93.816 170.574 92.752 171.47 91.92C172.382 91.088 173.15 90.216 173.774 89.304C174.398 88.392 174.71 87.504 174.71 86.64C174.71 85.984 174.558 85.472 174.254 85.104C173.95 84.736 173.494 84.552 172.886 84.552C172.278 84.552 171.798 84.784 171.446 85.248C171.11 85.696 170.942 86.336 170.942 87.168H166.982C167.014 85.808 167.302 84.672 167.846 83.76C168.406 82.848 169.134 82.176 170.03 81.744C170.942 81.312 171.95 81.096 173.054 81.096C174.958 81.096 176.39 81.584 177.35 82.56C178.326 83.536 178.814 84.808 178.814 86.376C178.814 88.088 178.23 89.68 177.062 91.152C175.894 92.608 174.406 94.032 172.598 95.424H179.078V98.76H167.03V95.712ZM186.115 86.424C186.179 84.712 186.739 83.392 187.795 82.464C188.851 81.536 190.283 81.072 192.091 81.072C193.291 81.072 194.315 81.28 195.163 81.696C196.027 82.112 196.675 82.68 197.107 83.4C197.555 84.12 197.779 84.928 197.779 85.824C197.779 86.88 197.515 87.744 196.987 88.416C196.459 89.072 195.843 89.52 195.139 89.76V89.856C196.051 90.16 196.771 90.664 197.299 91.368C197.827 92.072 198.091 92.976 198.091 94.08C198.091 95.072 197.859 95.952 197.395 96.72C196.947 97.472 196.283 98.064 195.403 98.496C194.539 98.928 193.507 99.144 192.307 99.144C190.387 99.144 188.851 98.672 187.699 97.728C186.563 96.784 185.963 95.36 185.899 93.456H189.883C189.899 94.16 190.099 94.72 190.483 95.136C190.867 95.536 191.427 95.736 192.163 95.736C192.787 95.736 193.267 95.56 193.603 95.208C193.955 94.84 194.131 94.36 194.131 93.768C194.131 93 193.883 92.448 193.387 92.112C192.907 91.76 192.131 91.584 191.059 91.584H190.291V88.248H191.059C191.875 88.248 192.531 88.112 193.027 87.84C193.539 87.552 193.795 87.048 193.795 86.328C193.795 85.752 193.635 85.304 193.315 84.984C192.995 84.664 192.555 84.504 191.995 84.504C191.387 84.504 190.931 84.688 190.627 85.056C190.339 85.424 190.171 85.88 190.123 86.424H186.115ZM200.598 95.88V92.568L208.182 81.72H212.766V92.328H214.734V95.88H212.766V99H208.662V95.88H200.598ZM208.95 86.232L204.918 92.328H208.95V86.232ZM229.08 85.056H221.592V88.368C221.912 88.016 222.36 87.728 222.936 87.504C223.512 87.28 224.136 87.168 224.808 87.168C226.008 87.168 227 87.44 227.784 87.984C228.584 88.528 229.168 89.232 229.536 90.096C229.904 90.96 230.088 91.896 230.088 92.904C230.088 94.776 229.56 96.264 228.504 97.368C227.448 98.456 225.96 99 224.04 99C222.76 99 221.648 98.784 220.704 98.352C219.76 97.904 219.032 97.288 218.52 96.504C218.008 95.72 217.728 94.816 217.68 93.792H221.688C221.784 94.288 222.016 94.704 222.384 95.04C222.752 95.36 223.256 95.52 223.896 95.52C224.648 95.52 225.208 95.28 225.576 94.8C225.944 94.32 226.128 93.68 226.128 92.88C226.128 92.096 225.936 91.496 225.552 91.08C225.168 90.664 224.608 90.456 223.872 90.456C223.328 90.456 222.88 90.592 222.528 90.864C222.176 91.12 221.944 91.464 221.832 91.896H217.872V81.456H229.08V85.056ZM246.103 86.208C245.975 85.616 245.751 85.176 245.431 84.888C245.111 84.584 244.655 84.432 244.063 84.432C243.151 84.432 242.495 84.832 242.095 85.632C241.695 86.416 241.487 87.664 241.471 89.376C241.823 88.816 242.327 88.376 242.983 88.056C243.655 87.736 244.391 87.576 245.191 87.576C246.759 87.576 248.015 88.072 248.959 89.064C249.919 90.056 250.399 91.44 250.399 93.216C250.399 94.384 250.159 95.408 249.679 96.288C249.215 97.168 248.527 97.856 247.615 98.352C246.719 98.848 245.655 99.096 244.423 99.096C241.959 99.096 240.247 98.328 239.287 96.792C238.327 95.24 237.847 93.016 237.847 90.12C237.847 87.08 238.351 84.824 239.359 83.352C240.383 81.864 242.015 81.12 244.255 81.12C245.455 81.12 246.463 81.36 247.279 81.84C248.111 82.304 248.735 82.92 249.151 83.688C249.583 84.456 249.839 85.296 249.919 86.208H246.103ZM244.207 90.816C243.519 90.816 242.943 91.024 242.479 91.44C242.031 91.84 241.807 92.416 241.807 93.168C241.807 93.936 242.015 94.536 242.431 94.968C242.863 95.4 243.471 95.616 244.255 95.616C244.959 95.616 245.511 95.408 245.911 94.992C246.327 94.56 246.535 93.976 246.535 93.24C246.535 92.488 246.335 91.896 245.935 91.464C245.535 91.032 244.959 90.816 244.207 90.816ZM263.905 84.552L257.881 99H253.681L259.777 85.008H252.313V81.504H263.905V84.552ZM268.444 89.592C266.94 88.792 266.188 87.536 266.188 85.824C266.188 84.96 266.412 84.176 266.86 83.472C267.308 82.752 267.988 82.184 268.9 81.768C269.812 81.336 270.932 81.12 272.26 81.12C273.588 81.12 274.7 81.336 275.596 81.768C276.508 82.184 277.188 82.752 277.636 83.472C278.084 84.176 278.308 84.96 278.308 85.824C278.308 86.688 278.1 87.44 277.684 88.08C277.284 88.72 276.74 89.224 276.052 89.592C276.916 90.008 277.58 90.584 278.044 91.32C278.508 92.04 278.74 92.888 278.74 93.864C278.74 95 278.452 95.984 277.876 96.816C277.3 97.632 276.516 98.256 275.524 98.688C274.548 99.12 273.46 99.336 272.26 99.336C271.06 99.336 269.964 99.12 268.972 98.688C267.996 98.256 267.22 97.632 266.644 96.816C266.068 95.984 265.78 95 265.78 93.864C265.78 92.872 266.012 92.016 266.476 91.296C266.94 90.56 267.596 89.992 268.444 89.592ZM274.324 86.448C274.324 85.792 274.132 85.288 273.748 84.936C273.38 84.568 272.884 84.384 272.26 84.384C271.636 84.384 271.132 84.568 270.748 84.936C270.38 85.304 270.196 85.816 270.196 86.472C270.196 87.096 270.388 87.592 270.772 87.96C271.156 88.312 271.652 88.488 272.26 88.488C272.868 88.488 273.364 88.304 273.748 87.936C274.132 87.568 274.324 87.072 274.324 86.448ZM272.26 91.368C271.508 91.368 270.9 91.576 270.436 91.992C269.972 92.392 269.74 92.952 269.74 93.672C269.74 94.344 269.964 94.896 270.412 95.328C270.876 95.76 271.492 95.976 272.26 95.976C273.028 95.976 273.628 95.76 274.06 95.328C274.508 94.896 274.732 94.344 274.732 93.672C274.732 92.968 274.5 92.408 274.036 91.992C273.588 91.576 272.996 91.368 272.26 91.368ZM285.543 93.864C285.783 95.128 286.519 95.76 287.751 95.76C288.599 95.76 289.199 95.384 289.551 94.632C289.903 93.88 290.079 92.656 290.079 90.96C289.727 91.456 289.247 91.84 288.639 92.112C288.031 92.384 287.351 92.52 286.599 92.52C285.575 92.52 284.663 92.312 283.863 91.896C283.063 91.464 282.431 90.832 281.967 90C281.519 89.152 281.295 88.128 281.295 86.928C281.295 85.744 281.535 84.712 282.015 83.832C282.511 82.952 283.207 82.272 284.103 81.792C285.015 81.312 286.087 81.072 287.319 81.072C289.687 81.072 291.343 81.808 292.287 83.28C293.231 84.752 293.703 86.92 293.703 89.784C293.703 91.864 293.511 93.584 293.127 94.944C292.759 96.288 292.127 97.312 291.231 98.016C290.351 98.72 289.143 99.072 287.607 99.072C286.391 99.072 285.351 98.832 284.487 98.352C283.639 97.872 282.983 97.24 282.519 96.456C282.071 95.672 281.815 94.808 281.751 93.864H285.543ZM287.535 89.28C288.207 89.28 288.743 89.08 289.143 88.68C289.543 88.264 289.743 87.704 289.743 87C289.743 86.232 289.535 85.64 289.119 85.224C288.703 84.808 288.143 84.6 287.439 84.6C286.735 84.6 286.175 84.816 285.759 85.248C285.359 85.664 285.159 86.24 285.159 86.976C285.159 87.664 285.359 88.224 285.759 88.656C286.175 89.072 286.767 89.28 287.535 89.28ZM300.978 90C300.978 87.248 301.506 85.08 302.562 83.496C303.634 81.912 305.354 81.12 307.722 81.12C310.09 81.12 311.802 81.912 312.858 83.496C313.93 85.08 314.466 87.248 314.466 90C314.466 92.784 313.93 94.968 312.858 96.552C311.802 98.136 310.09 98.928 307.722 98.928C305.354 98.928 303.634 98.136 302.562 96.552C301.506 94.968 300.978 92.784 300.978 90ZM310.434 90C310.434 88.384 310.258 87.144 309.906 86.28C309.554 85.4 308.826 84.96 307.722 84.96C306.618 84.96 305.89 85.4 305.538 86.28C305.186 87.144 305.01 88.384 305.01 90C305.01 91.088 305.074 91.992 305.202 92.712C305.33 93.416 305.586 93.992 305.97 94.44C306.37 94.872 306.954 95.088 307.722 95.088C308.49 95.088 309.066 94.872 309.45 94.44C309.85 93.992 310.114 93.416 310.242 92.712C310.37 91.992 310.434 91.088 310.434 90Z" fill="#2E2E2E"/>
</g>
<defs>
<filter id="filter0_d_1_42" x="0" y="0" width="410" height="199" filterUnits="userSpaceOnUse" color-interpolation-filters="sRGB">
<feFlood flood-opacity="0" result="BackgroundImageFix"/>
<feColorMatrix in="SourceAlpha" type="matrix" values="0 0 0 0 0 0 0 0 0 0 0 0 0 0 0 0 0 0 127 0" result="hardAlpha"/>
<feOffset dy="24"/>
<feGaussianBlur stdDeviation="25"/>
<feComposite in2="hardAlpha" operator="out"/>
<feColorMatrix type="matrix" values="0 0 0 0 0 0 0 0 0 0 0 0 0 0 0 0 0 0 0.1 0"/>
<feBlend mode="normal" in2="BackgroundImageFix" result="effect1_dropShadow_1_42"/>
<feBlend mode="normal" in="SourceGraphic" in2="effect1_dropShadow_1_42" result="shape"/>
</filter>
</defs>
</svg>
