<svg width="40" height="40" viewBox="0 0 40 40" fill="none" xmlns="http://www.w3.org/2000/svg">
<g clip-path="url(#clip0_1_987)">
<path fill-rule="evenodd" clip-rule="evenodd" d="M36.25 10C36.25 8.3425 35.5912 6.75281 34.4194 5.58063C33.2475 4.40844 31.6575 3.75 30 3.75C24.4513 3.75 15.5487 3.75 10 3.75C8.3425 3.75 6.7525 4.40844 5.58062 5.58063C4.40875 6.75281 3.75 8.3425 3.75 10C3.75 14.3628 3.75 20 3.75 20C3.75 20.6903 4.30937 21.25 5 21.25H35C35.6906 21.25 36.25 20.6903 36.25 20V10ZM33.75 18.75V10C33.75 9.00531 33.355 8.05156 32.6519 7.34844C31.9481 6.645 30.9944 6.25 30 6.25C24.4513 6.25 15.5487 6.25 10 6.25C9.00563 6.25 8.05188 6.645 7.34812 7.34844C6.645 8.05156 6.25 9.00531 6.25 10V18.75H33.75Z" fill="white"/>
<path fill-rule="evenodd" clip-rule="evenodd" d="M6.25 21.25V30C6.25 30.9947 6.645 31.9484 7.34812 32.6516C8.05188 33.355 9.00563 33.75 10 33.75C15.5487 33.75 24.4513 33.75 30 33.75C30.9944 33.75 31.9481 33.355 32.6519 32.6516C33.355 31.9484 33.75 30.9947 33.75 30C33.75 29.31 34.31 28.75 35 28.75C35.69 28.75 36.25 29.31 36.25 30C36.25 31.6575 35.5912 33.2472 34.4194 34.4194C33.2475 35.5916 31.6575 36.25 30 36.25C24.4513 36.25 15.5487 36.25 10 36.25C8.3425 36.25 6.7525 35.5916 5.58062 34.4194C4.40875 33.2472 3.75 31.6575 3.75 30V20C3.75 19.3097 4.30937 18.75 5 18.75H35C35.6906 18.75 36.25 19.3097 36.25 20C36.25 20 36.25 22.2462 36.25 25C36.25 25.69 35.69 26.25 35 26.25C34.31 26.25 33.75 25.69 33.75 25V21.25H6.25Z" fill="white"/>
<path d="M15 10H10V15H15V10Z" fill="#DB2A6B"/>
<path fill-rule="evenodd" clip-rule="evenodd" d="M16.25 10C16.25 9.30937 15.6906 8.75 15 8.75H10C9.30937 8.75 8.75 9.30937 8.75 10V15C8.75 15.6906 9.30937 16.25 10 16.25H15C15.6906 16.25 16.25 15.6906 16.25 15V10ZM11.25 11.25V13.75H13.75V11.25H11.25Z" fill="white"/>
<path fill-rule="evenodd" clip-rule="evenodd" d="M20.0001 11.25H30.0001C30.6901 11.25 31.2501 10.69 31.2501 10C31.2501 9.31 30.6901 8.75 30.0001 8.75H20.0001C19.3101 8.75 18.7501 9.31 18.7501 10C18.7501 10.69 19.3101 11.25 20.0001 11.25Z" fill="white"/>
<path fill-rule="evenodd" clip-rule="evenodd" d="M20.0001 16.25H30.0001C30.6901 16.25 31.2501 15.69 31.2501 15C31.2501 14.31 30.6901 13.75 30.0001 13.75H20.0001C19.3101 13.75 18.7501 14.31 18.7501 15C18.7501 15.69 19.3101 16.25 20.0001 16.25Z" fill="white"/>
<path fill-rule="evenodd" clip-rule="evenodd" d="M33.5356 33.5356C32.5981 34.4731 31.3262 35 30 35H20L16.25 31.25L23.75 23.75L33.5356 33.5356ZM20 35H9.99998C8.67373 35 7.40186 34.4731 6.46436 33.5356L12.5 27.5L20 35Z" fill="#DB2A6B"/>
<path fill-rule="evenodd" clip-rule="evenodd" d="M16.25 29.4826L22.8662 22.8663C23.3543 22.3782 24.1456 22.3782 24.6337 22.8663L34.4193 32.652C34.9062 33.1388 34.9075 33.9282 34.4218 34.417C34.4218 34.417 34.4218 34.417 34.4193 34.4195C33.2475 35.5913 31.6575 36.2501 30 36.2501H20H9.99997C8.34247 36.2501 6.75247 35.5913 5.5806 34.4195L5.5781 34.417C5.09247 33.9282 5.09372 33.1388 5.5806 32.652L11.6162 26.6163C12.1043 26.1282 12.8956 26.1282 13.3837 26.6163L16.25 29.4826ZM31.6162 33.3838L23.75 25.5176L18.0175 31.2501L20.5175 33.7501H30C30.565 33.7501 31.1168 33.6226 31.6162 33.3838ZM16.9825 33.7501L12.5 29.2676L8.38372 33.3838C8.88372 33.6226 9.4356 33.7501 9.99997 33.7501H16.9825Z" fill="white"/>
</g>
<defs>
<clipPath id="clip0_1_987">
<rect width="40" height="40" fill="white"/>
</clipPath>
</defs>
</svg>
