<svg width="96" height="96" viewBox="0 0 96 96" fill="none" xmlns="http://www.w3.org/2000/svg">
<path d="M43.4214 42.1628L43.4089 42.2065L34.6959 70.4358H29.288C28.9125 70.3983 28.5494 70.3607 28.1989 70.3107C25.1631 69.9288 23.1288 69.1652 23.1288 68.1574L20.8631 47.5394L19.0542 42.1628H43.4214Z" fill="#E4E5E6"/>
<path d="M43.3525 42.3946L41.9692 46.8701L34.6959 70.4361H29.288C28.9125 70.3985 28.5494 70.3609 28.1989 70.3109C25.1631 69.929 23.1288 69.1654 23.1288 68.1576L20.8631 47.5397L20.2997 45.8623L19.461 43.3711L19.0542 42.1631H42.7516L43.3525 42.3946Z" fill="#E4E5E6"/>
<path d="M44.3665 40.3039L43.4088 42.2067L34.6958 70.436H29.2879C28.9125 70.3984 28.5494 70.3609 28.1988 70.3109L38.6143 45.0047L39.7784 42.163L41.0491 39.0835C41.2806 39.1397 41.4997 39.2024 41.7126 39.2649L44.3665 40.3039Z" fill="#D4D4D4"/>
<path d="M42.3227 39.5025C43.4235 39.8977 43.9347 41.1619 43.4089 42.2067C42.7418 43.5289 41.4986 44.4664 40.0439 44.7441L39.0399 44.9358C38.9022 44.9609 38.7583 44.9796 38.6143 45.0047C36.7115 45.2989 34.5333 45.4742 32.2047 45.4742C29.7762 45.4742 26.4088 45.0986 26.4088 45.0986C25.1631 44.9295 24.0302 44.7043 23.0475 44.435C20.8693 43.853 19.4171 43.0518 19.1042 42.163C19.0603 42.0441 19.0417 41.9188 19.0417 41.7999C19.0417 39.7719 24.9316 38.1321 32.2047 38.1321C35.6099 38.1321 38.7357 38.4107 41.0491 39.0835C41.4613 39.2034 41.9018 39.3514 42.3227 39.5025Z" fill="white"/>
<path d="M43.6093 41.4057C43.6029 41.6748 43.5403 41.9501 43.4089 42.2067C43.0709 42.864 42.5952 43.4335 42.0194 43.8655C41.4434 44.3036 40.7675 44.6041 40.0414 44.7417L39.04 44.9358C38.9023 44.9609 38.7583 44.9797 38.6144 45.0047C36.7115 45.2989 34.5333 45.4742 32.2048 45.4742C31.9043 45.4742 31.5851 45.4678 31.2659 45.4554C33.1125 45.4053 34.8463 45.2425 36.3923 45.0047C36.5363 44.9797 36.6802 44.9609 36.8179 44.9358L37.8194 44.7417C38.5517 44.6041 39.1525 44.1939 39.7973 43.8655C39.8118 43.8582 39.8261 43.8507 39.8404 43.843C41.3257 43.0484 40.8027 40.7857 39.1276 40.6072C37.6707 40.452 36.0911 40.3665 34.4393 40.3665C27.3914 40.3665 21.6329 41.9125 21.2949 43.853C19.8678 43.2709 19.0417 42.5573 19.0417 41.7999C19.0417 39.8595 24.4183 38.276 31.2472 38.1446C31.5602 38.1382 31.8793 38.1321 32.2047 38.1321C32.4615 38.1321 32.718 38.1321 32.9746 38.1382C33.1812 38.1382 33.3816 38.1446 33.588 38.1507C36.4485 38.2134 39.0525 38.5075 41.0492 39.0835C41.068 39.0896 41.0868 39.0959 41.1055 39.1021C41.312 39.1523 41.5186 39.2085 41.7127 39.2649L42.3198 39.5028C43.1459 39.797 43.6467 40.5919 43.6093 41.4057Z" fill="#D4D4D4"/>
<path d="M24.2017 54.9404C23.72 54.9404 23.31 54.572 23.2674 54.083L22.9116 49.9997C22.8667 49.4832 23.2489 49.028 23.7655 48.9829C24.2822 48.9375 24.7373 49.3201 24.7824 49.8368L25.1381 53.9201C25.183 54.4366 24.8008 54.8919 24.2842 54.9369C24.2565 54.9394 24.2291 54.9404 24.2017 54.9404Z" fill="white"/>
<path d="M75.2997 38.2322C75.2997 39.8345 70.768 41.1365 65.1786 41.1365C59.6015 41.1365 55.0761 39.8409 55.0636 38.2385V38.2322C55.0636 38.0946 55.0949 37.9692 55.1576 37.8378C55.1639 37.8378 55.1639 37.8317 55.1639 37.8317C57.0541 29.92 59.8207 26.5024 59.8207 26.5024H70.5614C70.5614 26.5024 73.3406 29.9388 75.237 37.9068C75.237 37.913 75.2433 37.913 75.2433 37.9193C75.2558 37.9882 75.2746 38.0632 75.2934 38.1383C75.2934 38.1447 75.2934 38.1447 75.2934 38.1508C75.2997 38.1758 75.2997 38.2072 75.2997 38.2322Z" fill="#E4E5E6"/>
<path d="M76.9584 54.0306C76.9584 58.4934 76.6329 63.5572 75.8193 69.272C75.8193 70.868 71.3814 71.6692 65.7168 71.6692C65.2661 71.6692 64.8343 71.6692 64.4212 71.6629C64.2647 71.6567 64.1144 71.6567 63.9643 71.6504C63.8327 71.6504 63.7138 71.6504 63.5887 71.6441C58.4936 71.5252 56.0651 70.9869 54.9196 70.5364C54.3124 70.2985 53.9119 69.7101 53.9119 69.0591V45.9318C53.9119 45.3185 53.9455 44.7031 54.0241 44.0949C54.3045 41.9248 54.6623 39.9755 55.0635 38.2386C55.076 39.841 59.6015 41.1366 65.1785 41.1366C67.7886 41.1366 70.1734 40.8549 71.9697 40.3792C74.0165 39.8535 75.2997 39.0837 75.2997 38.2323C75.2997 38.2073 75.2997 38.1759 75.2935 38.1509C75.4186 38.6767 75.5375 39.2212 75.6503 39.7846C75.7004 40.0412 75.7504 40.304 75.8005 40.5733C75.9069 41.1428 76.0069 41.7249 76.1009 42.3259C76.1385 42.5699 76.1759 42.8203 76.2135 43.077C76.2449 43.2897 76.2762 43.5088 76.3012 43.728C76.3575 44.1222 76.4076 44.5229 76.4577 44.9297C76.683 46.8952 76.8457 49.0295 76.9146 51.3454C76.9272 51.6333 76.9333 51.9275 76.9397 52.2156V52.2281C76.9458 52.5221 76.9522 52.8164 76.9522 53.1169C76.9584 53.4173 76.9584 53.7239 76.9584 54.0306Z" fill="#89CF6E"/>
<path d="M76.8145 59.3071C76.6454 62.3804 76.3264 65.6978 75.8193 69.272C75.8193 70.8679 71.3814 71.6692 65.7168 71.6692C59.1445 71.6692 56.2152 71.0432 54.9195 70.5364C54.3124 70.2984 53.9118 69.7101 53.9118 69.0591V61.7734L62.0176 62.3743C63.0129 62.4556 64.0707 62.4932 65.1598 62.4932C71.5066 62.4932 76.7394 61.066 76.8145 59.3071Z" fill="#E4E5E6"/>
<path d="M76.9584 54.0306C76.9584 58.4934 76.6329 63.5572 75.8193 69.272C75.8193 70.868 71.3815 71.6692 65.7168 71.6692C64.9595 71.6692 64.2522 71.6629 63.5887 71.6441C68.4396 71.5002 72.0262 70.7052 72.0262 69.272C72.8337 63.5635 73.1654 58.506 73.1654 54.0494C73.1654 34.4141 66.7621 26.5024 66.7621 26.5024H70.5615C70.5614 26.5024 76.9584 34.4078 76.9584 54.0306Z" fill="#D4D4D4"/>
<path d="M76.9584 54.0304C76.9584 55.7016 76.9147 57.4604 76.8144 59.3069C76.7768 60.2521 75.2496 61.0971 72.8587 61.6855C73.0714 58.9626 73.1654 56.4213 73.1654 54.0492C73.1654 48.6223 72.6772 44.0907 71.9698 40.3789C74.0166 39.8532 75.2997 39.0833 75.2997 38.232C75.2997 38.207 75.2997 38.1756 75.2935 38.1506C75.4186 38.6764 75.5375 39.2209 75.6503 39.7843C75.7004 40.0409 75.7504 40.3037 75.8005 40.573C75.9069 41.1425 76.007 41.7246 76.1009 42.3256C76.1385 42.5696 76.176 42.82 76.2136 43.0767C76.2449 43.2894 76.2762 43.5085 76.3013 43.7277C76.3575 44.1219 76.4076 44.5226 76.4578 44.9294C76.683 46.8949 76.8457 49.0292 76.9147 51.3451C76.9272 51.6331 76.9333 51.9272 76.9397 52.2153V52.2278C76.9458 52.5218 76.9523 52.8223 76.9523 53.1166C76.9584 53.417 76.9584 53.7237 76.9584 54.0304ZM59.9742 24.1892V26.7269C59.9742 27.5494 62.3652 28.2163 65.3147 28.2163C68.2643 28.2163 70.6553 27.5494 70.6553 26.7269V24.1892H59.9742Z" fill="#6DBF4D"/>
<path d="M65.3147 20.013C69.1491 20.013 72.2574 19.1856 72.2574 18.1648C72.2574 17.1441 69.1491 16.3167 65.3147 16.3167C61.4803 16.3167 58.372 17.1441 58.372 18.1648C58.372 19.1856 61.4803 20.013 65.3147 20.013Z" fill="#89CF6E"/>
<path d="M58.372 18.4287V23.2677C58.372 24.3371 61.4803 25.2039 65.3147 25.2039C69.1491 25.2039 72.2574 24.3371 72.2574 23.2677V18.4287H58.372Z" fill="#89CF6E"/>
<path d="M72.2578 18.1651C72.2578 19.1854 69.1468 20.0115 65.3162 20.0115C64.7653 20.0115 64.2271 19.9929 63.7075 19.9614C66.7684 19.7675 69.0404 19.035 69.0404 18.1651C69.0404 17.2951 66.7684 16.5627 63.7075 16.3687C64.2271 16.3374 64.7653 16.3186 65.3162 16.3186C69.1468 16.3186 72.2578 17.1447 72.2578 18.1651Z" fill="#6DBF4D"/>
<path d="M72.2578 18.428V23.2664C72.2578 24.3367 69.1469 25.2067 65.3163 25.2067C64.7654 25.2067 64.2272 25.1879 63.7076 25.1503C66.7685 24.9501 69.0405 24.1802 69.0405 23.2664V18.428H72.2578ZM69.45 53.5417C69.45 55.3357 67.9791 56.7901 66.1647 56.7901C64.3504 56.7901 62.8795 55.3357 62.8795 53.5417C62.8795 50.4656 66.1647 47.7781 66.1647 47.7781C66.1647 47.7781 69.45 50.5185 69.45 53.5417Z" fill="#6DBF4D"/>
<path d="M68.4716 52.5631C68.4716 54.3571 67.0007 55.8115 65.1863 55.8115C63.372 55.8115 61.9011 54.3571 61.9011 52.5631C61.9011 49.487 65.1863 46.7995 65.1863 46.7995C65.1863 46.7995 68.4716 49.5399 68.4716 52.5631ZM56.5448 48.4452C56.0692 48.3693 55.7224 47.9408 55.7574 47.4512L56.0498 43.3629C56.0869 42.8458 56.536 42.4565 57.0534 42.4934C57.5707 42.53 57.9598 42.9796 57.9228 43.4969L57.6304 47.5853C57.5934 48.1024 57.1442 48.4917 56.6269 48.4548C56.5992 48.4528 56.5718 48.4495 56.5448 48.4452Z" fill="white"/>
<path d="M55.1574 37.8376C55.1261 37.9691 55.0948 38.0944 55.0634 38.2321C55.0634 38.0944 55.0948 37.9691 55.1574 37.8376Z" fill="white"/>
<path d="M30.3798 71.5933L28.9664 74.4271C34.0401 77.7289 40.3318 79.6834 47.1464 79.6834C53.6295 79.6834 59.6394 77.9144 64.5775 74.8992L63.0836 71.8504L30.3798 71.5933Z" fill="#FF8D29"/>
<path d="M51.5664 42.3522L47.1113 30.9404L34.6 61.3547L34.5963 61.4575C35.2516 61.8859 35.6839 62.621 35.6839 63.456C35.6839 64.7782 34.5998 65.8502 33.2625 65.8502C33.0953 65.8502 32.9321 65.8334 32.7745 65.8015L32.7521 65.8467L30.303 71.8004C34.9939 74.7469 40.8109 76.491 47.1113 76.491C53.1053 76.491 58.6618 74.9124 63.2273 72.2217L59.6014 62.9341L59.5402 62.9391C59.1539 63.1006 58.7292 63.1899 58.2835 63.1899C56.5004 63.1899 55.055 61.7607 55.055 59.9977C55.055 58.5938 55.9716 57.4015 57.2453 56.9741L57.2551 56.9241L53.3335 46.8788L53.2844 46.9207C52.9332 47.1168 52.5276 47.2287 52.0955 47.2287C50.7582 47.2287 49.6741 46.1568 49.6741 44.8345C49.6741 43.6954 50.4786 42.7421 51.5566 42.4998L51.5664 42.3522Z" fill="#FFAD31"/>
<path d="M63.2256 72.2198C61.7985 73.0647 60.2713 73.7971 58.6689 74.4043L45.2365 35.4967L47.1143 30.9399L51.5647 42.3505L51.5585 42.5009C50.4819 42.745 49.6744 43.6964 49.6744 44.8356C49.6744 46.1562 50.7573 47.2265 52.0967 47.2265C52.5287 47.2265 52.9355 47.1139 53.286 46.9198L53.336 46.8759L57.2543 56.9222L57.248 56.9722C55.9713 57.4041 55.0573 58.5934 55.0573 59.9955C55.0573 61.7606 56.5032 63.1876 58.2809 63.1876C58.7315 63.1876 59.1509 63.1 59.539 62.9373L59.6015 62.931L63.2256 72.2198Z" fill="#FF8D29"/>
<path d="M38.4746 58.4513C38.3556 58.4513 38.2345 58.4286 38.1178 58.3804C37.6383 58.1832 37.4094 57.6346 37.6066 57.155L39.4807 52.5992C39.6779 52.1195 40.2272 51.89 40.7062 52.088C41.1857 52.2853 41.4146 52.8339 41.2173 53.3134L39.3432 57.8693C39.1941 58.2321 38.8438 58.4513 38.4746 58.4513Z" fill="#FFE8C4"/>
<path d="M45.0206 49.056C45.9055 49.056 46.6228 48.3468 46.6228 47.4719C46.6228 46.597 45.9055 45.8877 45.0206 45.8877C44.1358 45.8877 43.4184 46.597 43.4184 47.4719C43.4184 48.3468 44.1358 49.056 45.0206 49.056Z" fill="white"/>
<path d="M47.9579 56.4488C48.9903 56.4488 49.8271 55.6214 49.8271 54.6006C49.8271 53.5799 48.9903 52.7524 47.9579 52.7524C46.9256 52.7524 46.0887 53.5799 46.0887 54.6006C46.0887 55.6214 46.9256 56.4488 47.9579 56.4488Z" fill="white"/>
<path d="M43.6854 64.3697C45.0127 64.3697 46.0887 63.3058 46.0887 61.9934C46.0887 60.6811 45.0127 59.6172 43.6854 59.6172C42.3582 59.6172 41.2822 60.6811 41.2822 61.9934C41.2822 63.3058 42.3582 64.3697 43.6854 64.3697Z" fill="white"/>
<path d="M51.6962 71.2345C52.7285 71.2345 53.5654 70.407 53.5654 69.3863C53.5654 68.3655 52.7285 67.5381 51.6962 67.5381C50.6639 67.5381 49.8271 68.3655 49.8271 69.3863C49.8271 70.407 50.6639 71.2345 51.6962 71.2345Z" fill="white"/>
</svg>
