<svg width="96" height="96" viewBox="0 0 96 96" fill="none" xmlns="http://www.w3.org/2000/svg">
<path d="M31.7133 46.2154C31.7133 46.2154 31.0809 30.3042 20.2731 18.6592C20.2731 18.6592 26.7153 28.5968 28.7009 46.1169L29.9637 47.2596L31.7133 46.2154Z" fill="#89CF6E"/>
<path d="M31.7147 46.2143L29.9656 47.2573L29.3824 46.7325L29.9202 46.4151C29.9202 46.4151 29.5249 36.5099 24.0508 26.611C22.185 21.7329 20.4878 18.9926 20.2934 18.6816C31.0797 30.3296 31.7147 46.2143 31.7147 46.2143Z" fill="#6DBF4D"/>
<path d="M34.168 45.3252C32.57 36.9879 30.8298 14.5125 30.8298 14.5125C26.9 23.352 29.9437 43.0237 31.1302 46.8288L34.168 45.3252Z" fill="#89CF6E"/>
<path d="M34.1708 45.3264L31.1325 46.8294C31.0743 46.648 31.0159 46.4213 30.9511 46.1686C31.9528 45.6734 32.51 44.5847 32.3332 43.4814C31.2484 36.7108 30.1607 24.6419 29.636 18.4351C29.9276 16.9839 30.3227 15.6559 30.828 14.5093C30.828 14.5093 32.5706 36.9889 34.1708 45.3264Z" fill="#6DBF4D"/>
<path d="M44.2044 62.4877L37.7196 65.9147L31.2283 69.728C26.9721 68.6786 23.2152 64.9948 22.4897 60.4406C21.654 55.1802 25.8453 49.3756 28.7021 46.1171C28.7021 46.1171 29.9589 46.5771 31.7146 46.2143C33.1979 45.9099 34.105 45.0547 34.105 45.0547C34.2734 45.1519 34.4418 45.2556 34.6168 45.3591C38.3482 47.6136 43.9063 51.7791 44.729 56.9811C45.04 58.8988 44.8263 60.7775 44.2044 62.4877Z" fill="#FF6B6E"/>
<path d="M25.5738 60.1643C25.0443 60.1643 24.611 59.7394 24.6026 59.2081C24.5712 57.2306 25.1081 55.0641 26.1987 52.7688C26.4288 52.284 27.0087 52.0778 27.4933 52.3082C27.978 52.5385 28.1843 53.1182 27.9538 53.603C26.9927 55.6258 26.5189 57.5012 26.5457 59.1771C26.5542 59.7137 26.1263 60.1557 25.5896 60.1642C25.5844 60.1643 25.5791 60.1643 25.5738 60.1643Z" fill="#FFD4D5"/>
<path d="M44.2043 62.4877L37.5823 66.0763C31.7062 61.6581 33.398 49.4599 33.398 49.4599C33.6313 47.782 34.0524 46.4345 34.6161 45.3591C38.3477 47.6136 43.9062 51.7791 44.729 56.9811C45.0399 58.8987 44.8263 60.7775 44.2043 62.4877Z" fill="#DB4A4D"/>
<path d="M54.0201 33.6946C54.0201 33.6946 53.0511 26.8103 48.0449 24.2288C48.0449 24.2288 46.43 33.3504 52.7281 39.3741L54.0201 33.6946Z" fill="#89CF6E"/>
<path d="M54.0195 33.692L52.7302 39.3733C52.4776 39.1336 52.238 38.8874 52.0177 38.6412L52.8469 35.0135C52.8469 35.0135 52.0047 29.0667 47.8715 26.1581C47.9168 24.9596 48.0464 24.2275 48.0464 24.2275C53.0478 26.8123 54.0195 33.692 54.0195 33.692Z" fill="#6DBF4D"/>
<path d="M52.777 41.4629C52.2859 41.4629 51.8647 41.0936 51.8123 40.5947C51.7818 40.3046 51.148 33.4118 58.3597 26.6198C58.7502 26.2519 59.3653 26.2702 59.7334 26.6609C60.1013 27.0516 60.0829 27.6666 59.6921 28.0346C53.2194 34.1306 53.721 40.1424 53.7456 40.3953C53.7971 40.9279 53.4087 41.4041 52.8761 41.4579C52.8429 41.4612 52.8097 41.4629 52.777 41.4629Z" fill="#FFAD31"/>
<path d="M41.7259 63.0794C35.8518 58.6605 37.8129 46.7561 37.8129 46.7561C39.6449 33.6841 52.7783 40.493 52.7783 40.493C52.7783 40.493 66.6148 33.8669 68.0568 47.3959C68.1822 48.573 68.2175 49.6789 68.171 50.7162C68.171 50.7162 67.6825 59.1111 62.3641 63.7548C57.0457 68.3984 41.7259 63.0794 41.7259 63.0794Z" fill="#89CF6E"/>
<path d="M40.5495 52.3803C40.5445 52.3803 40.5396 52.3803 40.5347 52.3803C39.9981 52.3722 39.5697 51.9306 39.5778 51.394C39.6134 49.0235 39.8893 47.3223 39.9012 47.251C40.0541 46.1587 40.2972 45.1326 40.6201 44.2243C40.7999 43.7187 41.3549 43.4544 41.8611 43.6344C42.3667 43.8143 42.6308 44.37 42.451 44.8756C42.1719 45.6605 41.9601 46.5583 41.8219 47.5439C41.8159 47.5825 41.554 49.2064 41.5206 51.4232C41.5127 51.9548 41.0793 52.3803 40.5495 52.3803Z" fill="#BDEBAB"/>
<path d="M68.1752 50.7167C68.1752 50.7167 67.6828 59.1127 62.364 63.7577C60.252 65.5976 56.5723 65.8697 52.8924 65.5263C54.7388 65.3061 56.3779 64.7683 57.5376 63.7577C62.8564 59.1127 63.3487 50.7167 63.3487 50.7167C63.3941 49.6802 63.3617 48.5723 63.2322 47.3933C62.6555 41.9579 60.0771 39.7747 57.2007 39.114C61.3857 38.3559 67.1517 38.9196 68.0586 47.3933C68.1817 48.5723 68.2206 49.6802 68.1752 50.7167Z" fill="#6DBF4D"/>
<path d="M63.9827 61.4927C69.8947 57.3712 71.1961 60.1258 71.1961 60.1258L70.7565 60.5134C76.5236 57.4563 75.1362 61.2554 75.1362 61.2554L75.1245 61.2074C75.1245 61.2074 82.3785 59.6004 84.0416 63.0227C85.7046 66.445 78.4917 66.2386 74.3144 63.9858L75.3393 64.5633C75.503 65.3406 75.6753 67.6833 70.8781 64.9292L71.3042 65.3314C71.3042 65.3314 69.9091 68.0407 64.1419 63.7233L63.9827 61.4927Z" fill="#89CF6E"/>
<path d="M75.1382 61.2566L75.1252 61.2047C75.1252 61.2047 75.1382 61.2047 75.1576 61.1982C75.1447 61.2371 75.1382 61.2566 75.1382 61.2566ZM74.3155 63.9837L75.339 64.5602C75.501 65.3376 75.6759 67.6824 70.8757 64.9294L71.3032 65.3311C71.3032 65.3311 69.9103 68.0387 64.1448 63.7246L64.093 63.0509C67.183 63.5885 70.7719 63.7958 74.5876 63.5756C77.8008 63.3878 80.826 62.9278 83.495 62.2542C83.7152 62.4744 83.8966 62.7335 84.0391 63.025C85.704 66.4452 78.4938 66.2379 74.3155 63.9837Z" fill="#6DBF4D"/>
<path d="M62.4177 59.9229C65.0927 51.8631 68.2636 53.5463 68.2636 53.5463L68.122 54.2223C71.4107 47.2696 72.7799 51.8348 72.7799 51.8348L72.7351 51.7977C72.7351 51.7977 78.45 45.1658 82.4332 47.2244C86.4165 49.283 79.4616 54.1738 73.9294 54.9922L75.3042 54.8147C76.0069 55.4332 77.8215 57.5237 71.3506 58.3057L72.0364 58.3851C72.0364 58.3851 72.6298 61.9268 64.1409 61.9167L62.4177 59.9229Z" fill="#89CF6E"/>
<path d="M71.8085 52.0968L71.7631 52.058C71.7631 52.058 71.7696 52.0515 71.789 52.0321C71.802 52.071 71.8085 52.0968 71.8085 52.0968ZM73.9268 54.9928L75.3066 54.8179C76.0063 55.4333 77.82 57.526 71.3485 58.3099L72.0351 58.3876C72.0351 58.3876 72.6312 61.925 64.1383 61.9185L62.4152 59.9231C62.5252 59.5863 68.1507 57.3512 70.865 55.7832C75.1988 53.2825 78.7594 49.8163 81.3637 46.875C81.7265 46.9334 82.0891 47.0435 82.4325 47.2249C86.4165 49.285 79.4592 54.1765 73.9268 54.9928Z" fill="#6DBF4D"/>
<path d="M64.1753 61.4941C65.5287 65.2199 62.4215 68.9703 57.8964 70.5771C48.4206 73.9417 32.6987 75.9894 24.3202 77.7025C20.7322 78.4361 19.891 76.008 23.0795 74.2363C32.2967 69.1148 43.3113 62.0438 53.5252 58.4171C58.0338 56.8162 62.8269 57.782 64.1753 61.4941Z" fill="#FFAD31"/>
<path d="M57.8937 70.5785C48.4224 73.9406 32.6996 75.9877 24.3233 77.7044C21.6866 78.2421 20.5334 77.0761 21.3692 75.7156C29.8298 74.0119 45.2674 71.9712 54.6222 68.6545C59.1505 67.0479 62.2536 63.2971 60.8996 59.5722C60.6729 58.9502 60.349 58.4061 59.9473 57.9397C61.9167 58.432 63.4909 59.6045 64.1776 61.4962C65.525 65.2211 62.4221 68.9719 57.8937 70.5785Z" fill="#FF8D29"/>
<path d="M46.5124 72.1491C46.1884 72.1491 45.8718 71.9872 45.6874 71.6922C45.0369 70.6515 44.5047 69.51 44.106 68.2997C43.938 67.79 44.2149 67.2406 44.7247 67.0726C45.2341 66.9051 45.7839 67.1818 45.9517 67.6914C46.3019 68.7539 46.7673 69.7534 47.3354 70.6621C47.62 71.1173 47.4816 71.7167 47.0265 72.0012C46.8663 72.1013 46.6882 72.1491 46.5124 72.1491ZM57.1996 68.9866C56.8757 68.9866 56.5591 68.8247 56.3746 68.5298C55.724 67.4888 55.1918 66.3474 54.793 65.1372C54.6251 64.6275 54.902 64.0781 55.4118 63.9102C55.9214 63.7425 56.471 64.0193 56.6388 64.529C56.9889 65.5912 57.4544 66.5906 58.0227 67.4996C58.3071 67.9547 58.1688 68.5542 57.7138 68.8387C57.5536 68.9388 57.3755 68.9866 57.1996 68.9866ZM50.7395 67.7011C50.3532 67.7011 49.9876 67.4691 49.8363 67.0881C49.3651 65.9034 49.0412 64.6878 48.8734 63.4751C48.7999 62.9434 49.1712 62.4528 49.7028 62.3792C50.2311 62.3053 50.7248 62.6768 50.7986 63.2086C50.945 64.2667 51.2289 65.3304 51.6422 66.3701C51.8405 66.8687 51.5969 67.4338 51.0983 67.6321C50.9804 67.6789 50.8589 67.7011 50.7395 67.7011ZM39.3092 71.8573C38.9229 71.8573 38.5575 71.6254 38.406 71.2445C38.0079 70.2437 37.7341 69.2165 37.5922 68.1915C37.5187 67.6599 37.8899 67.1693 38.4215 67.0956C38.9529 67.0221 39.4437 67.3932 39.5174 67.925C39.6379 68.7954 39.8715 69.6706 40.2118 70.5263C40.4102 71.025 40.1668 71.59 39.6681 71.7883C39.5503 71.8351 39.4287 71.8573 39.3092 71.8573Z" fill="#FFE8C4"/>
<path d="M71.8085 52.0963L71.7631 52.0574C71.7631 52.0574 71.7695 52.0509 71.789 52.0315C71.802 52.0704 71.8085 52.0963 71.8085 52.0963ZM75.1577 61.1982C75.1447 61.2371 75.1382 61.2566 75.1382 61.2566L75.1253 61.2047C75.1253 61.2047 75.1382 61.2047 75.1577 61.1982Z" fill="#6DBF4D"/>
</svg>
