<svg width="96" height="96" viewBox="0 0 96 96" fill="none" xmlns="http://www.w3.org/2000/svg">
<path d="M40.4237 30.9891C39.8359 33.1386 39.3822 35.2335 39.0374 37.2509C39.0374 37.2509 37.7008 50.2142 38.0343 58.5675C38.1182 60.6703 39.4582 62.521 41.4294 63.2582C44.3303 64.3432 49.3603 65.6098 57.0343 65.6098C66.8328 65.6098 74.7761 63.2887 74.7761 60.4255C74.7761 60.4255 78.0635 47.0756 73.4634 30.6277L40.4237 30.9891Z" fill="#E4E5E6"/>
<path d="M74.771 60.4272C74.771 63.2868 66.8272 65.6098 57.0317 65.6098C55.9031 65.6098 54.8347 65.5824 53.8213 65.533C62.165 65.1112 68.5091 62.9856 68.5091 60.4272C68.5091 60.4272 71.7907 47.1147 67.2161 30.6907L73.4615 30.625C78.058 47.0765 74.771 60.4272 74.771 60.4272Z" fill="#D4D4D4"/>
<path d="M44.3282 21.4338C42.6295 22.1363 41.0902 23.4255 39.9135 25.4729C39.2379 26.6484 38.7788 28.2323 38.7788 28.2323C38.5736 28.7764 38.6346 29.3947 38.9817 29.863L38.6606 29.0649C38.6606 31.5664 46.7274 33.5942 56.6782 33.5942C66.6291 33.5942 74.6958 31.5664 74.6958 29.0649L74.3701 29.863C74.7172 29.3947 74.7782 28.7764 74.573 28.2323C74.573 28.2323 74.1139 26.6484 73.4383 25.4729C72.2616 23.4255 70.7223 22.1363 69.0237 21.4338H44.3282Z" fill="#E4E5E6"/>
<path d="M38.688 28.9541L38.9838 29.6992C38.8196 29.48 38.7209 29.2225 38.688 28.9541ZM68.4907 29.6992L68.7921 28.9706C68.7537 29.228 68.6551 29.48 68.4907 29.6992Z" fill="#D4D4D4"/>
<path d="M74.6986 29.0634C74.6986 31.5669 66.6342 33.5938 56.6797 33.5938C55.677 33.5938 54.6965 33.5719 53.7431 33.5281C62.2952 33.1829 68.8201 31.3149 68.8201 29.0634L68.7928 29.1292C68.8421 28.8333 68.8038 28.5212 68.6941 28.2307C68.6941 28.2307 68.234 26.6476 67.5602 25.4698C66.3822 23.4265 64.8428 22.1336 63.1444 21.4324H69.0284C70.7267 22.1336 72.2662 23.4265 73.4441 25.4698C74.118 26.6476 74.5781 28.2307 74.5781 28.2307C74.6876 28.5212 74.7205 28.8333 74.6713 29.1292L74.6986 29.0634ZM38.688 28.9538L38.9839 29.6989C38.8196 29.4797 38.7209 29.2223 38.688 28.9538Z" fill="#D4D4D4"/>
<path d="M68.791 28.9709C68.7526 29.2282 68.654 29.4801 68.4896 29.6991L68.791 28.9709Z" fill="#D4D4D4"/>
<path d="M41.6312 40.6522C41.6 40.6522 41.5687 40.6503 41.5372 40.6469C41.0862 40.5954 40.7624 40.1882 40.8137 39.7374C41.0457 37.7003 41.4074 35.6802 41.8889 33.7329C41.9977 33.2923 42.4434 33.0232 42.8837 33.1325C43.3242 33.2413 43.593 33.6869 43.484 34.1275C43.0195 36.0064 42.6705 37.9564 42.4465 39.9233C42.3986 40.3427 42.0433 40.6522 41.6312 40.6522Z" fill="white"/>
<path d="M59.7072 41.0842C59.7072 41.0842 58.9909 39.4456 59.7676 36.9109C59.7676 36.9109 62.0202 39.1384 60.7774 42.0571L59.7072 41.0842ZM60.622 42.4411C60.622 42.4411 57.5927 43.0556 55.4955 41.289C55.4955 41.289 57.5927 40.4441 59.5346 40.9818L60.622 42.4411ZM62.2532 43.9773C62.2532 43.9773 62.141 42.0827 63.6945 40.1625C63.6945 40.1625 65.2049 42.7484 63.4183 45.3599L62.2532 43.9773ZM65.0141 47.2955C65.0141 47.2955 65.2025 45.0321 67.2158 43.1324C67.2158 43.1324 68.4734 46.3692 66.0971 49.0011L65.0141 47.2955Z" fill="#D4D4D4"/>
<path d="M64.6118 47.5003C64.6118 47.5003 62.4379 47.2142 60.1753 48.8163C60.1753 48.8163 63.0471 50.6884 66.1048 48.87L64.6118 47.5003ZM67.0982 51.0942C67.0982 51.0942 64.4951 50.8444 61.936 52.6564C61.936 52.6564 65.3285 54.7002 68.7869 52.6434L67.0982 51.0942Z" fill="#D4D4D4"/>
<path d="M67.434 50.82C67.434 50.82 67.7818 47.8744 70.1696 45.8466C70.1696 45.8466 71.3968 49.9763 68.5551 52.8098L67.434 50.82ZM62.0664 44.1407C62.0664 44.1407 60.14 43.7939 58.0522 45.1297C58.0522 45.1297 60.534 46.9214 63.3407 45.4255L62.0664 44.1407ZM63.8088 39.4563C63.5063 39.4563 63.261 39.211 63.261 38.9084C63.261 38.8995 63.26 37.9899 63.1845 36.8716C63.1642 36.5697 63.3924 36.3085 63.6942 36.288C63.999 36.2684 64.2574 36.496 64.2778 36.7978C64.3557 37.9551 64.3567 38.8701 64.3567 38.9085C64.3567 39.211 64.1114 39.4563 63.8088 39.4563ZM57.0164 45.6784C56.8422 45.6784 56.4097 45.65 55.4604 45.4624C55.1635 45.4038 54.9705 45.1156 55.0292 44.8188C55.0878 44.5221 55.3757 44.3286 55.6728 44.3876C56.693 44.5893 57.0078 44.5822 57.0229 44.5827C57.3186 44.5758 57.5757 44.8038 57.5918 45.1005C57.6078 45.397 57.3909 45.6522 57.0948 45.6759C57.0786 45.6772 57.0533 45.6784 57.0164 45.6784ZM67.5059 42.4517C67.4468 42.4517 67.3866 42.4421 67.3277 42.4218C67.042 42.3235 66.8899 42.0124 66.9875 41.7265C66.9946 41.7053 67.2224 41.0074 67.2224 39.9838C67.2224 39.6813 67.4677 39.436 67.7702 39.436C68.0727 39.436 68.318 39.6813 68.318 39.9838C68.318 41.2133 68.036 42.0471 68.0239 42.082C67.9458 42.3091 67.7333 42.4517 67.5059 42.4517ZM58.657 49.467C58.3761 49.467 57.8085 49.4287 57.1603 49.1723C56.8789 49.061 56.741 48.7427 56.8523 48.4614C56.9634 48.1799 57.2816 48.0423 57.5631 48.1534C58.2025 48.4063 58.7386 48.369 58.7441 48.369C59.0473 48.3429 59.3106 48.5672 59.3362 48.8686C59.3617 49.17 59.1381 49.4351 58.8366 49.4607C58.8162 49.4624 58.7536 49.467 58.657 49.467Z" fill="#D4D4D4"/>
<path d="M70.5405 56.0925C70.3619 56.0925 70.187 56.0055 70.0819 55.845C66.4067 50.2421 62.2685 44.8305 57.7823 39.7604C57.5818 39.5338 57.6031 39.1876 57.8296 38.9871C58.0562 38.7866 58.4025 38.808 58.603 39.0344C63.1239 44.1437 67.2942 49.5975 70.9981 55.2442C71.164 55.4972 71.0934 55.8367 70.8404 56.0027C70.7478 56.0634 70.6435 56.0925 70.5405 56.0925ZM60.6782 53.2445H58.8084C58.5059 53.2445 58.2606 52.9992 58.2606 52.6966C58.2606 52.3941 58.5059 52.1488 58.8084 52.1488H60.6782C60.9807 52.1488 61.226 52.3941 61.226 52.6966C61.226 52.9992 60.9807 53.2445 60.6782 53.2445ZM70.571 45.4228C70.5137 45.4228 70.4556 45.4137 70.3982 45.3947C70.1113 45.2995 69.9559 44.9896 70.0506 44.7026C70.0531 44.6952 70.2964 43.9495 70.2964 43.1836C70.2964 42.8811 70.5417 42.6358 70.8443 42.6358C71.1468 42.6358 71.3921 42.8811 71.3921 43.1836C71.3921 44.132 71.1027 45.0114 71.0903 45.0483C71.0139 45.2778 70.8002 45.4228 70.571 45.4228Z" fill="#D4D4D4"/>
<path d="M59.0508 41.0842C59.0508 41.0842 58.3345 39.4456 59.1112 36.9109C59.1112 36.9109 61.3638 39.1384 60.121 42.0571L59.0508 41.0842ZM59.9657 42.4411C59.9657 42.4411 56.9363 43.0556 54.8391 41.289C54.8391 41.289 56.9363 40.4441 58.8782 40.9818L59.9657 42.4411ZM61.5969 43.9773C61.5969 43.9773 61.4847 42.0827 63.0382 40.1625C63.0382 40.1625 64.5485 42.7484 62.762 45.3599L61.5969 43.9773ZM64.3577 47.2955C64.3577 47.2955 64.5461 45.0321 66.5594 43.1324C66.5594 43.1324 67.817 46.3692 65.4407 49.0011L64.3577 47.2955Z" fill="#FFAD31"/>
<path d="M63.9554 47.5003C63.9554 47.5003 61.7815 47.2142 59.5189 48.8163C59.5189 48.8163 62.3907 50.6884 65.4484 48.87L63.9554 47.5003ZM66.4419 51.0942C66.4419 51.0942 63.8388 50.8444 61.2796 52.6564C61.2796 52.6564 64.6721 54.7002 68.1306 52.6434L66.4419 51.0942Z" fill="#FFAD31"/>
<path d="M66.778 50.82C66.778 50.82 67.1258 47.8744 69.5137 45.8466C69.5137 45.8466 70.7409 49.9763 67.8992 52.8098L66.778 50.82ZM61.4102 44.1407C61.4102 44.1407 59.4838 43.7939 57.3959 45.1297C57.3959 45.1297 59.8778 46.9214 62.6846 45.4255L61.4102 44.1407ZM63.1527 39.4563C62.8502 39.4563 62.6049 39.211 62.6049 38.9084C62.6049 38.8995 62.6038 37.9899 62.5284 36.8716C62.5081 36.5697 62.7362 36.3085 63.0381 36.288C63.3429 36.2684 63.6013 36.496 63.6217 36.7978C63.6996 37.9551 63.7006 38.8701 63.7006 38.9085C63.7006 39.211 63.4553 39.4563 63.1527 39.4563ZM56.36 45.6784C56.1859 45.6784 55.7534 45.65 54.804 45.4624C54.5071 45.4038 54.3141 45.1156 54.3728 44.8188C54.4314 44.5221 54.7194 44.3286 55.0164 44.3876C56.0367 44.5893 56.3515 44.5822 56.3666 44.5827C56.6624 44.5758 56.9194 44.8038 56.9355 45.1005C56.9515 45.397 56.7346 45.6522 56.4385 45.6759C56.4222 45.6772 56.397 45.6784 56.36 45.6784ZM66.8499 42.4517C66.7908 42.4517 66.7306 42.4421 66.6717 42.4218C66.386 42.3235 66.2339 42.0124 66.3315 41.7265C66.3386 41.7053 66.5664 41.0074 66.5664 39.9838C66.5664 39.6813 66.8117 39.436 67.1142 39.436C67.4167 39.436 67.6621 39.6813 67.6621 39.9838C67.6621 41.2133 67.38 42.0471 67.3679 42.082C67.2899 42.3091 67.0773 42.4517 66.8499 42.4517ZM58.0007 49.467C57.7199 49.467 57.1522 49.4287 56.504 49.1723C56.2226 49.061 56.0846 48.7427 56.1959 48.4614C56.3071 48.1799 56.6253 48.0423 56.9068 48.1534C57.5463 48.4063 58.0823 48.369 58.0878 48.369C58.391 48.3429 58.6544 48.5672 58.6799 48.8686C58.7055 49.17 58.4818 49.4351 58.1804 49.4607C58.1599 49.4624 58.0973 49.467 58.0007 49.467Z" fill="#FFAD31"/>
<path d="M69.8829 56.0925C69.7044 56.0925 69.5294 56.0055 69.4243 55.845C65.7493 50.2421 61.6112 44.8305 57.1252 39.7604C56.9247 39.5338 56.9459 39.1876 57.1725 38.9871C57.3991 38.7866 57.7454 38.808 57.9459 39.0344C62.4666 44.1437 66.6367 49.5975 70.3405 55.2442C70.5065 55.4972 70.4359 55.8367 70.1828 56.0027C70.0902 56.0634 69.9859 56.0925 69.8829 56.0925ZM60.021 53.2445H58.1513C57.8488 53.2445 57.6035 52.9992 57.6035 52.6966C57.6035 52.3941 57.8488 52.1488 58.1513 52.1488H60.021C60.3235 52.1488 60.5688 52.3941 60.5688 52.6966C60.5688 52.9992 60.3235 53.2445 60.021 53.2445ZM69.9134 45.4228C69.8562 45.4228 69.798 45.4137 69.7406 45.3947C69.4537 45.2995 69.2983 44.9896 69.393 44.7026C69.3955 44.6952 69.6388 43.9495 69.6388 43.1836C69.6388 42.8811 69.8841 42.6358 70.1867 42.6358C70.4892 42.6358 70.7345 42.8811 70.7345 43.1836C70.7345 44.132 70.4451 45.0114 70.4328 45.0483C70.3563 45.2778 70.1427 45.4228 69.9134 45.4228Z" fill="#FFAD31"/>
<path d="M70.7704 23.0489C70.7704 23.8871 69.6199 24.6487 67.6971 25.2459C65.1386 26.051 61.2107 26.5661 56.8006 26.5661C52.248 26.5661 48.2051 26.0183 45.6521 25.1636C43.8773 24.5829 42.8308 23.8487 42.8308 23.0489C42.8308 21.1096 49.087 19.5374 56.8006 19.5374C64.5196 19.5373 70.7704 21.1095 70.7704 23.0489Z" fill="#E4E5E6"/>
<path d="M70.7704 23.0489C70.7704 23.1147 70.7649 23.1806 70.7484 23.2462C68.2065 22.3806 64.1252 21.8219 59.5178 21.8219C52.0674 21.8219 45.9754 23.2901 45.57 25.1362C43.8444 24.5611 42.8308 23.8379 42.8308 23.0489C42.8308 21.1096 49.087 19.5374 56.8006 19.5374C64.5196 19.5374 70.7704 21.1096 70.7704 23.0489Z" fill="#D4D4D4"/>
<path d="M67.6961 25.2454C65.1376 26.0505 61.2097 26.5656 56.7996 26.5656C52.2471 26.5656 48.2041 26.0178 45.6511 25.1631C45.7608 25.0591 45.8319 25.0042 45.8319 25.0042C48.3795 23.673 52.2361 22.8184 56.5476 22.8184C61.0014 22.8184 64.8802 23.8866 67.5043 25.1357C67.5754 25.1686 67.6358 25.207 67.6961 25.2454Z" fill="#FFAD31"/>
<path d="M67.6957 25.2452C65.1373 26.0505 61.2093 26.5656 56.7992 26.5656C55.0846 26.5656 53.4356 26.4888 51.9181 26.3409C54.3761 26.2893 56.648 26.0754 58.5721 25.7428C59.4999 25.5825 59.6006 24.2905 58.7059 23.9975C57.3236 23.5449 55.6916 23.0757 54.3998 22.8896C55.1009 22.8403 55.8186 22.8184 56.5473 22.8184C61.0011 22.8184 64.8798 23.8866 67.504 25.1357C67.5751 25.1686 67.6354 25.207 67.6957 25.2452Z" fill="#FF8D29"/>
<path d="M22.9951 73.0324C16.4509 57.3185 22.9951 42.0667 22.9951 42.0667H50.4701C50.4701 42.0667 57.0143 57.3185 50.4701 73.0324H22.9951Z" fill="#FF6B6E"/>
<path d="M22.9681 52.3666C22.9291 52.3666 22.8896 52.3638 22.8499 52.358C22.4007 52.2933 22.089 51.8766 22.1538 51.4275C22.446 49.3989 22.8674 47.3904 23.4064 45.4576C23.5283 45.0205 23.9807 44.7645 24.4186 44.8867C24.8558 45.0086 25.1114 45.4619 24.9894 45.899C24.4694 47.7641 24.0626 49.703 23.7804 51.6618C23.7214 52.0713 23.37 52.3666 22.9681 52.3666Z" fill="#FFE8C4"/>
<path d="M50.4711 73.033H45.9027C52.4487 57.3211 45.9027 42.0693 45.9027 42.0693H50.4711C50.4711 42.0693 57.0117 57.3211 50.4711 73.033Z" fill="#DB4A4D"/>
<path d="M50.5595 38.6912H22.9813V42.0668H50.5595V38.6912Z" fill="#FFAD31"/>
<path d="M50.5648 38.6892H45.9027V42.0693H50.5648V38.6892Z" fill="#FF8D29"/>
<path d="M50.5595 73.0325H22.9813V76.462H50.5595V73.0325Z" fill="#FFAD31"/>
<path d="M50.5648 73.033H45.9027V76.4624H50.5648V73.033Z" fill="#FF8D29"/>
<path d="M37.1243 58.3802C36.5963 55.9993 34.2077 54.487 31.7997 55.0091C29.3918 55.5312 27.8624 57.8931 28.3904 60.274L30.6888 59.7756C30.4387 58.6478 31.1631 57.5291 32.3037 57.2817C33.4444 57.0344 34.5758 57.7507 34.8259 58.8786L37.1243 58.3802Z" fill="#DB4A4D"/>
<path d="M29.7292 60.9037C30.3678 60.7859 30.8112 60.2881 30.7196 59.7917C30.628 59.2954 30.036 58.9885 29.3974 59.1063C28.7588 59.2241 28.3154 59.7219 28.407 60.2183C28.4986 60.7146 29.0905 61.0215 29.7292 60.9037Z" fill="#DB4A4D"/>
<path d="M36.1634 59.5172C36.802 59.3993 37.2454 58.9013 37.1538 58.4047C37.0622 57.9082 36.4702 57.6012 35.8316 57.719C35.193 57.8368 34.7496 58.3349 34.8412 58.8315C34.9328 59.328 35.5247 59.635 36.1634 59.5172Z" fill="#DB4A4D"/>
<path d="M35.0013 64.7575C36.2812 66.8334 39.0338 67.4783 41.1372 66.1952C43.2406 64.9121 43.9106 62.1793 42.6307 60.1035L40.623 61.3283C41.2293 62.3116 40.9119 63.606 39.9155 64.2138C38.9191 64.8216 37.6154 64.5161 37.0091 63.5328L35.0013 64.7575Z" fill="#DB4A4D"/>
<path d="M42.0626 61.5353C42.6273 61.2145 42.8829 60.5985 42.6334 60.1595C42.384 59.7204 41.724 59.6246 41.1592 59.9455C40.5945 60.2663 40.3389 60.8823 40.5884 61.3213C40.8378 61.7603 41.4978 61.8561 42.0626 61.5353Z" fill="#DB4A4D"/>
<path d="M36.438 64.9563C37.0027 64.6353 37.2583 64.0192 37.0088 63.58C36.7594 63.1408 36.0994 63.045 35.5346 63.3659C34.9699 63.6869 34.7143 64.303 34.9638 64.7422C35.2132 65.1814 35.8732 65.2772 36.438 64.9563Z" fill="#DB4A4D"/>
<path d="M30.325 71.0377C32.4429 69.8281 33.1802 67.0983 31.9684 64.9526C30.7565 62.8069 28.0475 62.0453 25.9296 63.2548L27.0863 65.3029C28.0896 64.73 29.3727 65.0907 29.9467 66.1072C30.5208 67.1236 30.1716 68.4166 29.1683 68.9895L30.325 71.0377Z" fill="#DB4A4D"/>
<path d="M27.0807 65.3429C27.5278 65.1084 27.6458 64.4518 27.3441 63.8765C27.0425 63.3012 26.4355 63.025 25.9884 63.2596C25.5413 63.4942 25.4233 64.1507 25.725 64.726C26.0266 65.3013 26.6336 65.5775 27.0807 65.3429Z" fill="#DB4A4D"/>
<path d="M30.3075 71.0774C30.7547 70.8428 30.8727 70.1864 30.571 69.6111C30.2693 69.0359 29.6622 68.7597 29.215 68.9943C28.7678 69.2288 28.6498 69.8853 28.9515 70.4605C29.2532 71.0357 29.8603 71.3119 30.3075 71.0774Z" fill="#DB4A4D"/>
<path d="M45.6401 70.9331C48.0701 71.1406 50.2271 69.3131 50.4483 66.8592C50.6696 64.4053 48.8727 62.24 46.4428 62.0325L46.2315 64.3747C47.3826 64.4731 48.2338 65.4986 48.1289 66.6611C48.0241 67.8235 47.0025 68.6892 45.8514 68.5908L45.6401 70.9331Z" fill="#DB4A4D"/>
<path d="M47.259 63.3467C47.3375 62.7016 46.9948 62.1292 46.4936 62.0682C45.9925 62.0072 45.5226 62.4806 45.4442 63.1257C45.3657 63.7708 45.7084 64.3432 46.2096 64.4042C46.7107 64.4652 47.1806 63.9918 47.259 63.3467Z" fill="#DB4A4D"/>
<path d="M46.6576 69.9016C46.736 69.2571 46.3933 68.6851 45.8922 68.6241C45.391 68.5631 44.9212 69.0362 44.8427 69.6808C44.7643 70.3254 45.107 70.8973 45.6081 70.9583C46.1093 71.0193 46.5791 70.5462 46.6576 69.9016Z" fill="#DB4A4D"/>
<path d="M36.027 58.3802C35.4989 55.9993 33.1101 54.487 30.7019 55.0091C28.2937 55.5312 26.7641 57.8931 27.2922 60.274L29.5908 59.7756C29.3406 58.6478 30.0651 57.5291 31.2059 57.2817C32.3467 57.0344 33.4782 57.7507 33.7284 58.8786L36.027 58.3802Z" fill="#FFAD31"/>
<path d="M28.6334 60.9046C29.2721 60.7867 29.7156 60.2884 29.624 59.7916C29.5324 59.2949 28.9403 58.9877 28.3016 59.1056C27.6628 59.2235 27.2193 59.7218 27.3109 60.2186C27.4025 60.7154 27.9946 61.0225 28.6334 60.9046Z" fill="white"/>
<path d="M35.0675 59.5182C35.7062 59.4003 36.1497 58.9023 36.0581 58.4057C35.9665 57.9091 35.3744 57.6021 34.7356 57.72C34.0969 57.8378 33.6534 58.3359 33.745 58.8324C33.8366 59.329 34.4287 59.636 35.0675 59.5182Z" fill="white"/>
<path d="M33.9071 64.7578C35.187 66.8336 37.9397 67.4786 40.0432 66.1954C42.1466 64.9123 42.8167 62.1796 41.5367 60.1038L39.5289 61.3285C40.1352 62.3119 39.8179 63.6062 38.8214 64.214C37.825 64.8219 36.5212 64.5164 35.9149 63.533L33.9071 64.7578Z" fill="#FFAD31"/>
<path d="M40.9661 61.5346C41.5308 61.2139 41.7864 60.598 41.537 60.1591C41.2875 59.7201 40.6275 59.6243 40.0627 59.9451C39.498 60.2658 39.2424 60.8817 39.4918 61.3207C39.7413 61.7596 40.4013 61.8554 40.9661 61.5346Z" fill="white"/>
<path d="M35.3437 64.9554C35.9085 64.6346 36.1641 64.0187 35.9146 63.5797C35.6652 63.1406 35.0051 63.0448 34.4404 63.3656C33.8757 63.6865 33.6201 64.3024 33.8695 64.7414C34.119 65.1804 34.779 65.2762 35.3437 64.9554Z" fill="white"/>
<path d="M29.2307 71.0375C31.3485 69.8281 32.0856 67.0987 30.8739 64.9533C29.6622 62.8079 26.9534 62.0463 24.8356 63.2557L25.9922 65.3036C26.9954 64.7307 28.2784 65.0914 28.8524 66.1077C29.4265 67.124 29.0773 68.4168 28.0741 68.9897L29.2307 71.0375Z" fill="#FFAD31"/>
<path d="M25.9841 65.3416C26.4313 65.107 26.5493 64.4505 26.2476 63.8753C25.946 63.3 25.3389 63.0238 24.8917 63.2584C24.4444 63.493 24.3265 64.1494 24.6281 64.7247C24.9298 65.3 25.5369 65.5761 25.9841 65.3416Z" fill="white"/>
<path d="M29.2145 71.0769C29.6617 70.8423 29.7796 70.1859 29.478 69.6106C29.1763 69.0354 28.5692 68.7592 28.122 68.9938C27.6748 69.2283 27.5568 69.8848 27.8585 70.46C28.1602 71.0352 28.7673 71.3114 29.2145 71.0769Z" fill="white"/>
<path d="M44.5448 70.9338C46.9748 71.1414 49.1317 69.3136 49.353 66.8594C49.5743 64.4053 47.7774 62.2398 45.3474 62.0322L45.1362 64.3748C46.2873 64.4731 47.1384 65.4988 47.0336 66.6613C46.9288 67.8239 45.9071 68.6896 44.756 68.5913L44.5448 70.9338Z" fill="#FFAD31"/>
<path d="M46.1651 63.3466C46.2436 62.7018 45.9009 62.1296 45.3997 62.0686C44.8986 62.0076 44.4287 62.4809 44.3503 63.1257C44.2718 63.7705 44.6145 64.3427 45.1157 64.4037C45.6169 64.4647 46.0867 63.9914 46.1651 63.3466Z" fill="white"/>
<path d="M45.5639 69.9012C45.6424 69.2561 45.2997 68.6837 44.7985 68.6227C44.2973 68.5616 43.8274 69.0351 43.749 69.6802C43.6705 70.3252 44.0132 70.8976 44.5144 70.9586C45.0156 71.0197 45.4855 70.5462 45.5639 69.9012Z" fill="white"/>
</svg>
